<svg xmlns="http://www.w3.org/2000/svg" width="898" height="1338" viewBox="0 0 898 1338">
    <defs>
      <marker id="arrow" markerWidth="10" markerHeight="8" refX="9" refY="4" orient="auto">
        <path d="M 0 0 L 10 4 L 0 8 z" fill="#9AA3AF"/>
      </marker>
    </defs>
    <rect width="898" height="1338" fill="#ffffff"/>
    
      <rect x="40" y="10" width="250" height="62" fill="#FFE8A6" stroke="none"/>
      <text text-anchor="middle" font-family="Arial" font-size="18" font-weight="700" fill="#222" x="165" y="33"><tspan x="165" dy="0">Prototype Team</tspan></text>
      <rect x="40" y="82" width="250" height="1230" fill="#F5F5F5" stroke="none"/>
    
      <rect x="324" y="10" width="250" height="62" fill="#D9C2F5" stroke="none"/>
      <text text-anchor="middle" font-family="Arial" font-size="18" font-weight="700" fill="#222" x="449" y="48"><tspan x="449" dy="0">Stakeholders</tspan></text>
      <rect x="324" y="82" width="250" height="1230" fill="#F5F5F5" stroke="none"/>
    
      <rect x="608" y="10" width="250" height="62" fill="#B9E1FA" stroke="none"/>
      <text text-anchor="middle" font-family="Arial" font-size="18" font-weight="700" fill="#222" x="733" y="33"><tspan x="733" dy="0">Project Lead</tspan></text>
      <rect x="608" y="82" width="250" height="1230" fill="#F5F5F5" stroke="none"/>
    
    <path d="M 165 210 L 165 232" fill="none" stroke="#9AA3AF" stroke-width="1.5" marker-end="url(#arrow)"/><path d="M 165 328 L 165 350" fill="none" stroke="#9AA3AF" stroke-width="1.5" marker-end="url(#arrow)"/><path d="M 165 446 L 165 457 L 449 457 L 449 468" fill="none" stroke="#9AA3AF" stroke-width="1.5" marker-end="url(#arrow)"/><path d="M 449 564 L 449 586" fill="none" stroke="#9AA3AF" stroke-width="1.5" marker-end="url(#arrow)"/><path d="M 449 682 L 449 693 L 165 693 L 165 704" fill="none" stroke="#9AA3AF" stroke-width="1.5" marker-end="url(#arrow)"/><rect x="279" y="665" width="56" height="18" fill="#ffffff" opacity="0.86"/>
        <text x="307" y="678" text-anchor="middle" font-family="Arial" font-size="13" font-weight="700" fill="#333">No</text><path d="M 165 800 L 165 634 L 449 634 L 449 468" fill="none" stroke="#9AA3AF" stroke-width="1.5" marker-end="url(#arrow)"/><path d="M 449 682 L 449 693 L 733 693 L 733 704" fill="none" stroke="#9AA3AF" stroke-width="1.5" marker-end="url(#arrow)"/><rect x="563" y="683" width="56" height="18" fill="#ffffff" opacity="0.86"/>
        <text x="591" y="696" text-anchor="middle" font-family="Arial" font-size="13" font-weight="700" fill="#333">Yes</text><path d="M 733 800 L 733 811 L 165 811 L 165 822" fill="none" stroke="#9AA3AF" stroke-width="1.5" marker-end="url(#arrow)"/><path d="M 165 918 L 165 929 L 733 929 L 733 940" fill="none" stroke="#9AA3AF" stroke-width="1.5" marker-end="url(#arrow)"/><path d="M 733 1036 L 733 1047 L 165 1047 L 165 1058" fill="none" stroke="#9AA3AF" stroke-width="1.5" marker-end="url(#arrow)"/><rect x="421" y="1019" width="56" height="18" fill="#ffffff" opacity="0.86"/>
        <text x="449" y="1032" text-anchor="middle" font-family="Arial" font-size="13" font-weight="700" fill="#333">No</text><path d="M 165 1154 L 165 1047 L 733 1047 L 733 940" fill="none" stroke="#9AA3AF" stroke-width="1.5" marker-end="url(#arrow)"/><path d="M 733 1036 L 733 1176" fill="none" stroke="#9AA3AF" stroke-width="1.5" marker-end="url(#arrow)"/><rect x="705" y="1096" width="56" height="18" fill="#ffffff" opacity="0.86"/>
        <text x="733" y="1109" text-anchor="middle" font-family="Arial" font-size="13" font-weight="700" fill="#333">Yes</text>
    <ellipse cx="165" cy="162" rx="93" ry="46" fill="#B9E1FA" stroke="#6BAED6" stroke-width="1.5"/>
      <text text-anchor="middle" font-size="15" fill="#172033" font-family="Arial" x="165" y="167"><tspan x="165" dy="0">Start</tspan></text><rect x="72" y="234" width="186" height="92" fill="#FFE8A6" stroke="#D6AE3E" stroke-width="1.5"/>
    <text text-anchor="middle" font-size="14" fill="#172033" font-family="Arial" x="165" y="276.5"><tspan x="165" dy="0">Prepare same dummy</tspan><tspan x="165" dy="17">content</tspan></text><rect x="72" y="352" width="186" height="92" fill="#FFE8A6" stroke="#D6AE3E" stroke-width="1.5"/>
    <text text-anchor="middle" font-size="14" fill="#172033" font-family="Arial" x="165" y="394.5"><tspan x="165" dy="0">Build 3 visual</tspan><tspan x="165" dy="17">design directions</tspan></text><rect x="356" y="470" width="186" height="92" fill="#D9C2F5" stroke="#9C6FD2" stroke-width="1.5"/>
    <text text-anchor="middle" font-size="14" fill="#172033" font-family="Arial" x="449" y="512.5"><tspan x="449" dy="0">Review Home /</tspan><tspan x="449" dy="17">Events / Membership</tspan></text><polygon points="449,588 542,636 449,684 356,636" fill="#B9E1FA" stroke="#6BAED6" stroke-width="1.5"/>
      <text text-anchor="middle" font-size="14" fill="#172033" font-family="Arial" x="449" y="641"><tspan x="449" dy="0">Direction accepted?</tspan></text><rect x="72" y="706" width="186" height="92" fill="#FFE8A6" stroke="#D6AE3E" stroke-width="1.5"/>
    <text text-anchor="middle" font-size="14" fill="#172033" font-family="Arial" x="165" y="748.5"><tspan x="165" dy="0">Revise or combine</tspan><tspan x="165" dy="17">selected elements</tspan></text><rect x="640" y="706" width="186" height="92" fill="#B9E1FA" stroke="#6BAED6" stroke-width="1.5"/>
    <text text-anchor="middle" font-size="14" fill="#172033" font-family="Arial" x="733" y="748.5"><tspan x="733" dy="0">Confirm selected</tspan><tspan x="733" dy="17">route</tspan></text><rect x="72" y="824" width="186" height="92" fill="#FFE8A6" stroke="#D6AE3E" stroke-width="1.5"/>
    <text text-anchor="middle" font-size="14" fill="#172033" font-family="Arial" x="165" y="866.5"><tspan x="165" dy="0">Apply to all public</tspan><tspan x="165" dy="17">sections</tspan></text><polygon points="733,942 826,990 733,1038 640,990" fill="#B9E1FA" stroke="#6BAED6" stroke-width="1.5"/>
      <text text-anchor="middle" font-size="14" fill="#172033" font-family="Arial" x="733" y="986.5"><tspan x="733" dy="0">All sitemap sections</tspan><tspan x="733" dy="17">covered?</tspan></text><rect x="72" y="1060" width="186" height="92" fill="#FFE8A6" stroke="#D6AE3E" stroke-width="1.5"/>
    <text text-anchor="middle" font-size="14" fill="#172033" font-family="Arial" x="165" y="1102.5"><tspan x="165" dy="0">Add missing section</tspan><tspan x="165" dy="17">page</tspan></text><rect x="640" y="1178" width="186" height="92" fill="#B9E1FA" stroke="#6BAED6" stroke-width="1.5"/>
    <text text-anchor="middle" font-size="14" fill="#172033" font-family="Arial" x="733" y="1220.5"><tspan x="733" dy="0">Status: ready for</tspan><tspan x="733" dy="17">sign-off</tspan></text>
    <text x="40" y="1328" font-family="Arial" font-size="13" fill="#6B7280">01-public-site-design-selection.mmd</text>
  </svg>