<svg xmlns="http://www.w3.org/2000/svg" width="1182" height="1574" viewBox="0 0 1182 1574">
    <defs>
      <marker id="arrow" markerWidth="10" markerHeight="8" refX="9" refY="4" orient="auto">
        <path d="M 0 0 L 10 4 L 0 8 z" fill="#9AA3AF"/>
      </marker>
    </defs>
    <rect width="1182" height="1574" fill="#ffffff"/>
    
      <rect x="40" y="10" width="250" height="62" fill="#FFE8A6" stroke="none"/>
      <text text-anchor="middle" font-family="Arial" font-size="18" font-weight="700" fill="#222" x="165" y="33"><tspan x="165" dy="0">Public Visitor</tspan></text>
      <rect x="40" y="82" width="250" height="1466" fill="#F5F5F5" stroke="none"/>
    
      <rect x="324" y="10" width="250" height="62" fill="#D9C2F5" stroke="none"/>
      <text text-anchor="middle" font-family="Arial" font-size="18" font-weight="700" fill="#222" x="449" y="33"><tspan x="449" dy="0">Public Site</tspan></text>
      <rect x="324" y="82" width="250" height="1466" fill="#F5F5F5" stroke="none"/>
    
      <rect x="608" y="10" width="250" height="62" fill="#B9E1FA" stroke="none"/>
      <text text-anchor="middle" font-family="Arial" font-size="18" font-weight="700" fill="#222" x="733" y="33"><tspan x="733" dy="0">Event System</tspan></text>
      <rect x="608" y="82" width="250" height="1466" fill="#F5F5F5" stroke="none"/>
    
      <rect x="892" y="10" width="250" height="62" fill="#FFC0BE" stroke="none"/>
      <text text-anchor="middle" font-family="Arial" font-size="18" font-weight="700" fill="#222" x="1017" y="48"><tspan x="1017" dy="0">Notification</tspan></text>
      <rect x="892" y="82" width="250" height="1466" fill="#F5F5F5" stroke="none"/>
    
    <path d="M 165 210 L 165 232" fill="none" stroke="#9AA3AF" stroke-width="1.5" marker-end="url(#arrow)"/><path d="M 165 328 L 165 339 L 449 339 L 449 350" fill="none" stroke="#9AA3AF" stroke-width="1.5" marker-end="url(#arrow)"/><path d="M 449 446 L 449 468" fill="none" stroke="#9AA3AF" stroke-width="1.5" marker-end="url(#arrow)"/><rect x="421" y="429" width="56" height="18" fill="#ffffff" opacity="0.86"/>
        <text x="449" y="442" text-anchor="middle" font-family="Arial" font-size="13" font-weight="700" fill="#333">No</text><path d="M 449 446 L 449 457 L 733 457 L 733 468" fill="none" stroke="#9AA3AF" stroke-width="1.5" marker-end="url(#arrow)"/><rect x="563" y="447" width="56" height="18" fill="#ffffff" opacity="0.86"/>
        <text x="591" y="460" text-anchor="middle" font-family="Arial" font-size="13" font-weight="700" fill="#333">Yes</text><path d="M 733 564 L 733 586" fill="none" stroke="#9AA3AF" stroke-width="1.5" marker-end="url(#arrow)"/><rect x="705" y="547" width="56" height="18" fill="#ffffff" opacity="0.86"/>
        <text x="733" y="560" text-anchor="middle" font-family="Arial" font-size="13" font-weight="700" fill="#333">No</text><path d="M 733 564 L 733 575 L 165 575 L 165 586" fill="none" stroke="#9AA3AF" stroke-width="1.5" marker-end="url(#arrow)"/><rect x="421" y="565" width="56" height="18" fill="#ffffff" opacity="0.86"/>
        <text x="449" y="578" text-anchor="middle" font-family="Arial" font-size="13" font-weight="700" fill="#333">Yes</text><path d="M 165 682 L 165 693 L 733 693 L 733 704" fill="none" stroke="#9AA3AF" stroke-width="1.5" marker-end="url(#arrow)"/><path d="M 733 800 L 733 811 L 165 811 L 165 822" fill="none" stroke="#9AA3AF" stroke-width="1.5" marker-end="url(#arrow)"/><rect x="421" y="783" width="56" height="18" fill="#ffffff" opacity="0.86"/>
        <text x="449" y="796" text-anchor="middle" font-family="Arial" font-size="13" font-weight="700" fill="#333">No</text><path d="M 165 918 L 165 586" fill="none" stroke="#9AA3AF" stroke-width="1.5" marker-end="url(#arrow)"/><path d="M 733 800 L 733 822" fill="none" stroke="#9AA3AF" stroke-width="1.5" marker-end="url(#arrow)"/><rect x="705" y="801" width="56" height="18" fill="#ffffff" opacity="0.86"/>
        <text x="733" y="814" text-anchor="middle" font-family="Arial" font-size="13" font-weight="700" fill="#333">Yes</text><path d="M 733 918 L 733 929 L 165 929 L 165 940" fill="none" stroke="#9AA3AF" stroke-width="1.5" marker-end="url(#arrow)"/><rect x="421" y="901" width="56" height="18" fill="#ffffff" opacity="0.86"/>
        <text x="449" y="914" text-anchor="middle" font-family="Arial" font-size="13" font-weight="700" fill="#333">Yes</text><path d="M 733 918 L 733 1294" fill="none" stroke="#9AA3AF" stroke-width="1.5" marker-end="url(#arrow)"/><rect x="705" y="1096" width="56" height="18" fill="#ffffff" opacity="0.86"/>
        <text x="733" y="1109" text-anchor="middle" font-family="Arial" font-size="13" font-weight="700" fill="#333">No</text><path d="M 165 1036 L 165 1047 L 733 1047 L 733 1058" fill="none" stroke="#9AA3AF" stroke-width="1.5" marker-end="url(#arrow)"/><path d="M 733 1154 L 733 1176" fill="none" stroke="#9AA3AF" stroke-width="1.5" marker-end="url(#arrow)"/><rect x="705" y="1137" width="56" height="18" fill="#ffffff" opacity="0.86"/>
        <text x="733" y="1150" text-anchor="middle" font-family="Arial" font-size="13" font-weight="700" fill="#333">No</text><path d="M 733 1272 L 733 1106 L 165 1106 L 165 940" fill="none" stroke="#9AA3AF" stroke-width="1.5" marker-end="url(#arrow)"/><path d="M 733 1154 L 733 1294" fill="none" stroke="#9AA3AF" stroke-width="1.5" marker-end="url(#arrow)"/><rect x="705" y="1214" width="56" height="18" fill="#ffffff" opacity="0.86"/>
        <text x="733" y="1227" text-anchor="middle" font-family="Arial" font-size="13" font-weight="700" fill="#333">Yes</text><path d="M 733 1390 L 733 1401 L 1017 1401 L 1017 1412" fill="none" stroke="#9AA3AF" stroke-width="1.5" marker-end="url(#arrow)"/>
    <ellipse cx="165" cy="162" rx="93" ry="46" fill="#B9E1FA" stroke="#6BAED6" stroke-width="1.5"/>
      <text text-anchor="middle" font-size="15" fill="#172033" font-family="Arial" x="165" y="167"><tspan x="165" dy="0">Start</tspan></text><rect x="72" y="234" width="186" height="92" fill="#FFE8A6" stroke="#D6AE3E" stroke-width="1.5"/>
    <text text-anchor="middle" font-size="14" fill="#172033" font-family="Arial" x="165" y="276.5"><tspan x="165" dy="0">Open public event</tspan><tspan x="165" dy="17">detail</tspan></text><polygon points="449,352 542,400 449,448 356,400" fill="#B9E1FA" stroke="#6BAED6" stroke-width="1.5"/>
      <text text-anchor="middle" font-size="14" fill="#172033" font-family="Arial" x="449" y="396.5"><tspan x="449" dy="0">Event audience is</tspan><tspan x="449" dy="17">public?</tspan></text><rect x="356" y="470" width="186" height="92" fill="#D9C2F5" stroke="#9C6FD2" stroke-width="1.5"/>
    <text text-anchor="middle" font-size="14" fill="#172033" font-family="Arial" x="449" y="512.5"><tspan x="449" dy="0">Status: alumni</tspan><tspan x="449" dy="17">login required</tspan></text><polygon points="733,470 826,518 733,566 640,518" fill="#B9E1FA" stroke="#6BAED6" stroke-width="1.5"/>
      <text text-anchor="middle" font-size="14" fill="#172033" font-family="Arial" x="733" y="523"><tspan x="733" dy="0">Capacity available?</tspan></text><rect x="640" y="588" width="186" height="92" fill="#B9E1FA" stroke="#6BAED6" stroke-width="1.5"/>
    <text text-anchor="middle" font-size="14" fill="#172033" font-family="Arial" x="733" y="630.5"><tspan x="733" dy="0">Status: waitlisted</tspan><tspan x="733" dy="17">/ enquiry only</tspan></text><rect x="72" y="588" width="186" height="92" fill="#FFE8A6" stroke="#D6AE3E" stroke-width="1.5"/>
    <text text-anchor="middle" font-size="14" fill="#172033" font-family="Arial" x="165" y="630.5"><tspan x="165" dy="0">Enter guest</tspan><tspan x="165" dy="17">attendee details</tspan></text><polygon points="733,706 826,754 733,802 640,754" fill="#B9E1FA" stroke="#6BAED6" stroke-width="1.5"/>
      <text text-anchor="middle" font-size="14" fill="#172033" font-family="Arial" x="733" y="750.5"><tspan x="733" dy="0">Required fields</tspan><tspan x="733" dy="17">valid?</tspan></text><rect x="72" y="824" width="186" height="92" fill="#FFE8A6" stroke="#D6AE3E" stroke-width="1.5"/>
    <text text-anchor="middle" font-size="14" fill="#172033" font-family="Arial" x="165" y="866.5"><tspan x="165" dy="0">Status: validation</tspan><tspan x="165" dy="17">error</tspan></text><polygon points="733,824 826,872 733,920 640,872" fill="#B9E1FA" stroke="#6BAED6" stroke-width="1.5"/>
      <text text-anchor="middle" font-size="14" fill="#172033" font-family="Arial" x="733" y="877"><tspan x="733" dy="0">Payment required?</tspan></text><rect x="72" y="942" width="186" height="92" fill="#FFE8A6" stroke="#D6AE3E" stroke-width="1.5"/>
    <text text-anchor="middle" font-size="14" fill="#172033" font-family="Arial" x="165" y="984.5"><tspan x="165" dy="0">Pay or receive</tspan><tspan x="165" dy="17">payment link</tspan></text><polygon points="733,1060 826,1108 733,1156 640,1108" fill="#B9E1FA" stroke="#6BAED6" stroke-width="1.5"/>
      <text text-anchor="middle" font-size="14" fill="#172033" font-family="Arial" x="733" y="1113"><tspan x="733" dy="0">Payment successful?</tspan></text><rect x="640" y="1178" width="186" height="92" fill="#B9E1FA" stroke="#6BAED6" stroke-width="1.5"/>
    <text text-anchor="middle" font-size="14" fill="#172033" font-family="Arial" x="733" y="1220.5"><tspan x="733" dy="0">Status: pending</tspan><tspan x="733" dy="17">payment</tspan></text><rect x="640" y="1296" width="186" height="92" fill="#B9E1FA" stroke="#6BAED6" stroke-width="1.5"/>
    <text text-anchor="middle" font-size="14" fill="#172033" font-family="Arial" x="733" y="1338.5"><tspan x="733" dy="0">Status: confirmed</tspan><tspan x="733" dy="17">registration</tspan></text><rect x="924" y="1414" width="186" height="92" fill="#FFC0BE" stroke="#DE7D79" stroke-width="1.5"/>
    <text text-anchor="middle" font-size="14" fill="#172033" font-family="Arial" x="1017" y="1448"><tspan x="1017" dy="0">Send email /</tspan><tspan x="1017" dy="17">WhatsApp</tspan><tspan x="1017" dy="17">notification</tspan></text>
    <text x="40" y="1564" font-family="Arial" font-size="13" fill="#6B7280">02-public-event-guest-registration.mmd</text>
  </svg>