<svg xmlns="http://www.w3.org/2000/svg" width="1182" height="1574" viewBox="0 0 1182 1574">
    <defs>
      <marker id="arrow" markerWidth="10" markerHeight="8" refX="9" refY="4" orient="auto">
        <path d="M 0 0 L 10 4 L 0 8 z" fill="#9AA3AF"/>
      </marker>
    </defs>
    <rect width="1182" height="1574" fill="#ffffff"/>
    
      <rect x="40" y="10" width="250" height="62" fill="#FFE8A6" stroke="none"/>
      <text text-anchor="middle" font-family="Arial" font-size="18" font-weight="700" fill="#222" x="165" y="33"><tspan x="165" dy="0">Public Visitor</tspan></text>
      <rect x="40" y="82" width="250" height="1466" fill="#F5F5F5" stroke="none"/>
    
      <rect x="324" y="10" width="250" height="62" fill="#D9C2F5" stroke="none"/>
      <text text-anchor="middle" font-family="Arial" font-size="18" font-weight="700" fill="#222" x="449" y="33"><tspan x="449" dy="0">Public Site</tspan></text>
      <rect x="324" y="82" width="250" height="1466" fill="#F5F5F5" stroke="none"/>
    
      <rect x="608" y="10" width="250" height="62" fill="#B9E1FA" stroke="none"/>
      <text text-anchor="middle" font-family="Arial" font-size="18" font-weight="700" fill="#222" x="733" y="33"><tspan x="733" dy="0">Account System</tspan></text>
      <rect x="608" y="82" width="250" height="1466" fill="#F5F5F5" stroke="none"/>
    
      <rect x="892" y="10" width="250" height="62" fill="#FFC0BE" stroke="none"/>
      <text text-anchor="middle" font-family="Arial" font-size="18" font-weight="700" fill="#222" x="1017" y="33"><tspan x="1017" dy="0">Membership Path</tspan></text>
      <rect x="892" y="82" width="250" height="1466" fill="#F5F5F5" stroke="none"/>
    
    <path d="M 165 210 L 165 232" fill="none" stroke="#9AA3AF" stroke-width="1.5" marker-end="url(#arrow)"/><path d="M 165 328 L 165 339 L 449 339 L 449 350" fill="none" stroke="#9AA3AF" stroke-width="1.5" marker-end="url(#arrow)"/><rect x="279" y="311" width="56" height="18" fill="#ffffff" opacity="0.86"/>
        <text x="307" y="324" text-anchor="middle" font-family="Arial" font-size="13" font-weight="700" fill="#333">No</text><path d="M 165 328 L 165 339 L 733 339 L 733 350" fill="none" stroke="#9AA3AF" stroke-width="1.5" marker-end="url(#arrow)"/><rect x="421" y="329" width="56" height="18" fill="#ffffff" opacity="0.86"/>
        <text x="449" y="342" text-anchor="middle" font-family="Arial" font-size="13" font-weight="700" fill="#333">Yes</text><path d="M 733 446 L 733 457 L 165 457 L 165 468" fill="none" stroke="#9AA3AF" stroke-width="1.5" marker-end="url(#arrow)"/><rect x="421" y="429" width="56" height="18" fill="#ffffff" opacity="0.86"/>
        <text x="449" y="442" text-anchor="middle" font-family="Arial" font-size="13" font-weight="700" fill="#333">Yes</text><path d="M 733 446 L 733 516 L 165 516 L 165 586" fill="none" stroke="#9AA3AF" stroke-width="1.5" marker-end="url(#arrow)"/><rect x="421" y="506" width="56" height="18" fill="#ffffff" opacity="0.86"/>
        <text x="449" y="519" text-anchor="middle" font-family="Arial" font-size="13" font-weight="700" fill="#333">No</text><path d="M 165 682 L 165 693 L 733 693 L 733 704" fill="none" stroke="#9AA3AF" stroke-width="1.5" marker-end="url(#arrow)"/><path d="M 733 800 L 733 822" fill="none" stroke="#9AA3AF" stroke-width="1.5" marker-end="url(#arrow)"/><path d="M 733 918 L 733 940" fill="none" stroke="#9AA3AF" stroke-width="1.5" marker-end="url(#arrow)"/><rect x="705" y="901" width="56" height="18" fill="#ffffff" opacity="0.86"/>
        <text x="733" y="914" text-anchor="middle" font-family="Arial" font-size="13" font-weight="700" fill="#333">No</text><path d="M 733 1036 L 733 704" fill="none" stroke="#9AA3AF" stroke-width="1.5" marker-end="url(#arrow)"/><path d="M 733 918 L 733 1058" fill="none" stroke="#9AA3AF" stroke-width="1.5" marker-end="url(#arrow)"/><rect x="705" y="978" width="56" height="18" fill="#ffffff" opacity="0.86"/>
        <text x="733" y="991" text-anchor="middle" font-family="Arial" font-size="13" font-weight="700" fill="#333">Yes</text><path d="M 165 564 L 165 811 L 733 811 L 733 1058" fill="none" stroke="#9AA3AF" stroke-width="1.5" marker-end="url(#arrow)"/><path d="M 733 1154 L 733 1165 L 449 1165 L 449 1176" fill="none" stroke="#9AA3AF" stroke-width="1.5" marker-end="url(#arrow)"/><path d="M 449 1272 L 449 1283 L 1017 1283 L 1017 1294" fill="none" stroke="#9AA3AF" stroke-width="1.5" marker-end="url(#arrow)"/><path d="M 1017 1390 L 1017 1401 L 733 1401 L 733 1412" fill="none" stroke="#9AA3AF" stroke-width="1.5" marker-end="url(#arrow)"/><rect x="847" y="1373" width="56" height="18" fill="#ffffff" opacity="0.86"/>
        <text x="875" y="1386" text-anchor="middle" font-family="Arial" font-size="13" font-weight="700" fill="#333">No</text><path d="M 1017 1390 L 1017 1412" fill="none" stroke="#9AA3AF" stroke-width="1.5" marker-end="url(#arrow)"/><rect x="989" y="1391" width="56" height="18" fill="#ffffff" opacity="0.86"/>
        <text x="1017" y="1404" text-anchor="middle" font-family="Arial" font-size="13" font-weight="700" fill="#333">Yes</text>
    <ellipse cx="165" cy="162" rx="93" ry="46" fill="#B9E1FA" stroke="#6BAED6" stroke-width="1.5"/>
      <text text-anchor="middle" font-size="15" fill="#172033" font-family="Arial" x="165" y="167"><tspan x="165" dy="0">Start</tspan></text><polygon points="165,234 258,282 165,330 72,282" fill="#B9E1FA" stroke="#6BAED6" stroke-width="1.5"/>
      <text text-anchor="middle" font-size="14" fill="#172033" font-family="Arial" x="165" y="278.5"><tspan x="165" dy="0">Create / login</tspan><tspan x="165" dy="17">account?</tspan></text><rect x="356" y="352" width="186" height="92" fill="#D9C2F5" stroke="#9C6FD2" stroke-width="1.5"/>
    <text text-anchor="middle" font-size="14" fill="#172033" font-family="Arial" x="449" y="394.5"><tspan x="449" dy="0">Status: continue as</tspan><tspan x="449" dy="17">guest</tspan></text><polygon points="733,352 826,400 733,448 640,400" fill="#B9E1FA" stroke="#6BAED6" stroke-width="1.5"/>
      <text text-anchor="middle" font-size="14" fill="#172033" font-family="Arial" x="733" y="396.5"><tspan x="733" dy="0">Existing public</tspan><tspan x="733" dy="17">account?</tspan></text><rect x="72" y="470" width="186" height="92" fill="#FFE8A6" stroke="#D6AE3E" stroke-width="1.5"/>
    <text text-anchor="middle" font-size="14" fill="#172033" font-family="Arial" x="165" y="512.5"><tspan x="165" dy="0">Login with email /</tspan><tspan x="165" dy="17">mobile</tspan></text><rect x="72" y="588" width="186" height="92" fill="#FFE8A6" stroke="#D6AE3E" stroke-width="1.5"/>
    <text text-anchor="middle" font-size="14" fill="#172033" font-family="Arial" x="165" y="639"><tspan x="165" dy="0">Enter basic profile</tspan></text><rect x="640" y="706" width="186" height="92" fill="#B9E1FA" stroke="#6BAED6" stroke-width="1.5"/>
    <text text-anchor="middle" font-size="14" fill="#172033" font-family="Arial" x="733" y="748.5"><tspan x="733" dy="0">Send verification</tspan><tspan x="733" dy="17">code</tspan></text><polygon points="733,824 826,872 733,920 640,872" fill="#B9E1FA" stroke="#6BAED6" stroke-width="1.5"/>
      <text text-anchor="middle" font-size="14" fill="#172033" font-family="Arial" x="733" y="868.5"><tspan x="733" dy="0">Verification</tspan><tspan x="733" dy="17">successful?</tspan></text><rect x="640" y="942" width="186" height="92" fill="#B9E1FA" stroke="#6BAED6" stroke-width="1.5"/>
    <text text-anchor="middle" font-size="14" fill="#172033" font-family="Arial" x="733" y="976"><tspan x="733" dy="0">Status:</tspan><tspan x="733" dy="17">verification</tspan><tspan x="733" dy="17">pending</tspan></text><rect x="640" y="1060" width="186" height="92" fill="#B9E1FA" stroke="#6BAED6" stroke-width="1.5"/>
    <text text-anchor="middle" font-size="14" fill="#172033" font-family="Arial" x="733" y="1102.5"><tspan x="733" dy="0">Status: active</tspan><tspan x="733" dy="17">public account</tspan></text><rect x="356" y="1178" width="186" height="92" fill="#D9C2F5" stroke="#9C6FD2" stroke-width="1.5"/>
    <text text-anchor="middle" font-size="14" fill="#172033" font-family="Arial" x="449" y="1220.5"><tspan x="449" dy="0">Show profile and</tspan><tspan x="449" dy="17">event history</tspan></text><polygon points="1017,1296 1110,1344 1017,1392 924,1344" fill="#B9E1FA" stroke="#6BAED6" stroke-width="1.5"/>
      <text text-anchor="middle" font-size="14" fill="#172033" font-family="Arial" x="1017" y="1340.5"><tspan x="1017" dy="0">Apply for alumni</tspan><tspan x="1017" dy="17">membership?</tspan></text><rect x="640" y="1414" width="186" height="92" fill="#B9E1FA" stroke="#6BAED6" stroke-width="1.5"/>
    <text text-anchor="middle" font-size="14" fill="#172033" font-family="Arial" x="733" y="1456.5"><tspan x="733" dy="0">Status: remains</tspan><tspan x="733" dy="17">public account</tspan></text><rect x="924" y="1414" width="186" height="92" fill="#FFC0BE" stroke="#DE7D79" stroke-width="1.5"/>
    <text text-anchor="middle" font-size="14" fill="#172033" font-family="Arial" x="1017" y="1456.5"><tspan x="1017" dy="0">Status: alumni</tspan><tspan x="1017" dy="17">applicant</tspan></text>
    <text x="40" y="1564" font-family="Arial" font-size="13" fill="#6B7280">03-optional-public-account.mmd</text>
  </svg>