<svg xmlns="http://www.w3.org/2000/svg" width="1466" height="1810" viewBox="0 0 1466 1810">
    <defs>
      <marker id="arrow" markerWidth="10" markerHeight="8" refX="9" refY="4" orient="auto">
        <path d="M 0 0 L 10 4 L 0 8 z" fill="#9AA3AF"/>
      </marker>
    </defs>
    <rect width="1466" height="1810" fill="#ffffff"/>
    
      <rect x="40" y="10" width="250" height="62" fill="#FFE8A6" stroke="none"/>
      <text text-anchor="middle" font-family="Arial" font-size="18" font-weight="700" fill="#222" x="165" y="48"><tspan x="165" dy="0">Applicant</tspan></text>
      <rect x="40" y="82" width="250" height="1702" fill="#F5F5F5" stroke="none"/>
    
      <rect x="324" y="10" width="250" height="62" fill="#D9C2F5" stroke="none"/>
      <text text-anchor="middle" font-family="Arial" font-size="18" font-weight="700" fill="#222" x="449" y="33"><tspan x="449" dy="0">Membership Admin</tspan></text>
      <rect x="324" y="82" width="250" height="1702" fill="#F5F5F5" stroke="none"/>
    
      <rect x="608" y="10" width="250" height="62" fill="#B9E1FA" stroke="none"/>
      <text text-anchor="middle" font-family="Arial" font-size="18" font-weight="700" fill="#222" x="733" y="33"><tspan x="733" dy="0">School / Records</tspan></text>
      <rect x="608" y="82" width="250" height="1702" fill="#F5F5F5" stroke="none"/>
    
      <rect x="892" y="10" width="250" height="62" fill="#FFC0BE" stroke="none"/>
      <text text-anchor="middle" font-family="Arial" font-size="18" font-weight="700" fill="#222" x="1017" y="48"><tspan x="1017" dy="0">GenCom</tspan></text>
      <rect x="892" y="82" width="250" height="1702" fill="#F5F5F5" stroke="none"/>
    
      <rect x="1176" y="10" width="250" height="62" fill="#C8E6C9" stroke="none"/>
      <text text-anchor="middle" font-family="Arial" font-size="18" font-weight="700" fill="#222" x="1301" y="48"><tspan x="1301" dy="0">System</tspan></text>
      <rect x="1176" y="82" width="250" height="1702" fill="#F5F5F5" stroke="none"/>
    
    <path d="M 165 210 L 165 232" fill="none" stroke="#9AA3AF" stroke-width="1.5" marker-end="url(#arrow)"/><path d="M 165 328 L 165 350" fill="none" stroke="#9AA3AF" stroke-width="1.5" marker-end="url(#arrow)"/><path d="M 165 446 L 165 457 L 449 457 L 449 468" fill="none" stroke="#9AA3AF" stroke-width="1.5" marker-end="url(#arrow)"/><path d="M 449 564 L 449 575 L 165 575 L 165 586" fill="none" stroke="#9AA3AF" stroke-width="1.5" marker-end="url(#arrow)"/><rect x="279" y="547" width="56" height="18" fill="#ffffff" opacity="0.86"/>
        <text x="307" y="560" text-anchor="middle" font-family="Arial" font-size="13" font-weight="700" fill="#333">No</text><path d="M 165 682 L 165 350" fill="none" stroke="#9AA3AF" stroke-width="1.5" marker-end="url(#arrow)"/><path d="M 449 564 L 449 704" fill="none" stroke="#9AA3AF" stroke-width="1.5" marker-end="url(#arrow)"/><rect x="421" y="624" width="56" height="18" fill="#ffffff" opacity="0.86"/>
        <text x="449" y="637" text-anchor="middle" font-family="Arial" font-size="13" font-weight="700" fill="#333">Yes</text><path d="M 449 800 L 449 822" fill="none" stroke="#9AA3AF" stroke-width="1.5" marker-end="url(#arrow)"/><rect x="421" y="783" width="56" height="18" fill="#ffffff" opacity="0.86"/>
        <text x="449" y="796" text-anchor="middle" font-family="Arial" font-size="13" font-weight="700" fill="#333">Yes</text><path d="M 449 800 L 449 870 L 733 870 L 733 940" fill="none" stroke="#9AA3AF" stroke-width="1.5" marker-end="url(#arrow)"/><rect x="563" y="860" width="56" height="18" fill="#ffffff" opacity="0.86"/>
        <text x="591" y="873" text-anchor="middle" font-family="Arial" font-size="13" font-weight="700" fill="#333">No</text><path d="M 449 918 L 449 929 L 733 929 L 733 940" fill="none" stroke="#9AA3AF" stroke-width="1.5" marker-end="url(#arrow)"/><path d="M 733 1036 L 733 1047 L 449 1047 L 449 1058" fill="none" stroke="#9AA3AF" stroke-width="1.5" marker-end="url(#arrow)"/><path d="M 449 1154 L 449 1283 L 1301 1283 L 1301 1412" fill="none" stroke="#9AA3AF" stroke-width="1.5" marker-end="url(#arrow)"/><rect x="847" y="1255" width="56" height="18" fill="#ffffff" opacity="0.86"/>
        <text x="875" y="1268" text-anchor="middle" font-family="Arial" font-size="13" font-weight="700" fill="#333">No</text><path d="M 449 1154 L 449 1165 L 1017 1165 L 1017 1176" fill="none" stroke="#9AA3AF" stroke-width="1.5" marker-end="url(#arrow)"/><rect x="705" y="1155" width="56" height="18" fill="#ffffff" opacity="0.86"/>
        <text x="733" y="1168" text-anchor="middle" font-family="Arial" font-size="13" font-weight="700" fill="#333">Yes</text><path d="M 1017 1272 L 1017 1294" fill="none" stroke="#9AA3AF" stroke-width="1.5" marker-end="url(#arrow)"/><path d="M 1017 1390 L 1017 1401 L 1301 1401 L 1301 1412" fill="none" stroke="#9AA3AF" stroke-width="1.5" marker-end="url(#arrow)"/><rect x="1131" y="1373" width="56" height="18" fill="#ffffff" opacity="0.86"/>
        <text x="1159" y="1386" text-anchor="middle" font-family="Arial" font-size="13" font-weight="700" fill="#333">No</text><path d="M 1017 1390 L 1017 1401 L 1301 1401 L 1301 1412" fill="none" stroke="#9AA3AF" stroke-width="1.5" marker-end="url(#arrow)"/><rect x="1131" y="1391" width="56" height="18" fill="#ffffff" opacity="0.86"/>
        <text x="1159" y="1404" text-anchor="middle" font-family="Arial" font-size="13" font-weight="700" fill="#333">Yes</text><path d="M 1301 1508 L 1301 1530" fill="none" stroke="#9AA3AF" stroke-width="1.5" marker-end="url(#arrow)"/><path d="M 1301 1626 L 1301 1648" fill="none" stroke="#9AA3AF" stroke-width="1.5" marker-end="url(#arrow)"/>
    <ellipse cx="165" cy="162" rx="93" ry="46" fill="#B9E1FA" stroke="#6BAED6" stroke-width="1.5"/>
      <text text-anchor="middle" font-size="15" fill="#172033" font-family="Arial" x="165" y="167"><tspan x="165" dy="0">Start</tspan></text><rect x="72" y="234" width="186" height="92" fill="#FFE8A6" stroke="#D6AE3E" stroke-width="1.5"/>
    <text text-anchor="middle" font-size="14" fill="#172033" font-family="Arial" x="165" y="276.5"><tspan x="165" dy="0">Status: draft</tspan><tspan x="165" dy="17">application</tspan></text><rect x="72" y="352" width="186" height="92" fill="#FFE8A6" stroke="#D6AE3E" stroke-width="1.5"/>
    <text text-anchor="middle" font-size="14" fill="#172033" font-family="Arial" x="165" y="394.5"><tspan x="165" dy="0">Submit application</tspan><tspan x="165" dy="17">details</tspan></text><polygon points="449,470 542,518 449,566 356,518" fill="#B9E1FA" stroke="#6BAED6" stroke-width="1.5"/>
      <text text-anchor="middle" font-size="14" fill="#172033" font-family="Arial" x="449" y="514.5"><tspan x="449" dy="0">Application</tspan><tspan x="449" dy="17">complete?</tspan></text><rect x="72" y="588" width="186" height="92" fill="#FFE8A6" stroke="#D6AE3E" stroke-width="1.5"/>
    <text text-anchor="middle" font-size="14" fill="#172033" font-family="Arial" x="165" y="630.5"><tspan x="165" dy="0">Status: pending</tspan><tspan x="165" dy="17">information</tspan></text><polygon points="449,706 542,754 449,802 356,754" fill="#B9E1FA" stroke="#6BAED6" stroke-width="1.5"/>
      <text text-anchor="middle" font-size="14" fill="#172033" font-family="Arial" x="449" y="750.5"><tspan x="449" dy="0">Duplicate record</tspan><tspan x="449" dy="17">risk?</tspan></text><rect x="356" y="824" width="186" height="92" fill="#D9C2F5" stroke="#9C6FD2" stroke-width="1.5"/>
    <text text-anchor="middle" font-size="14" fill="#172033" font-family="Arial" x="449" y="866.5"><tspan x="449" dy="0">Resolve duplicate /</tspan><tspan x="449" dy="17">link record</tspan></text><rect x="640" y="942" width="186" height="92" fill="#B9E1FA" stroke="#6BAED6" stroke-width="1.5"/>
    <text text-anchor="middle" font-size="14" fill="#172033" font-family="Arial" x="733" y="984.5"><tspan x="733" dy="0">Confirm school</tspan><tspan x="733" dy="17">qualification</tspan></text><polygon points="449,1060 542,1108 449,1156 356,1108" fill="#B9E1FA" stroke="#6BAED6" stroke-width="1.5"/>
      <text text-anchor="middle" font-size="14" fill="#172033" font-family="Arial" x="449" y="1104.5"><tspan x="449" dy="0">Qualification</tspan><tspan x="449" dy="17">confirmed?</tspan></text><rect x="924" y="1178" width="186" height="92" fill="#FFC0BE" stroke="#DE7D79" stroke-width="1.5"/>
    <text text-anchor="middle" font-size="14" fill="#172033" font-family="Arial" x="1017" y="1220.5"><tspan x="1017" dy="0">Status: pending</tspan><tspan x="1017" dy="17">GenCom</tspan></text><polygon points="1017,1296 1110,1344 1017,1392 924,1344" fill="#B9E1FA" stroke="#6BAED6" stroke-width="1.5"/>
      <text text-anchor="middle" font-size="14" fill="#172033" font-family="Arial" x="1017" y="1349"><tspan x="1017" dy="0">Approve application?</tspan></text><rect x="1208" y="1414" width="186" height="92" fill="#C8E6C9" stroke="#6AA56D" stroke-width="1.5"/>
    <text text-anchor="middle" font-size="14" fill="#172033" font-family="Arial" x="1301" y="1465"><tspan x="1301" dy="0">Status: rejected</tspan></text><rect x="1208" y="1414" width="186" height="92" fill="#C8E6C9" stroke="#6AA56D" stroke-width="1.5"/>
    <text text-anchor="middle" font-size="14" fill="#172033" font-family="Arial" x="1301" y="1465"><tspan x="1301" dy="0">Status: approved</tspan></text><rect x="1208" y="1532" width="186" height="92" fill="#C8E6C9" stroke="#6AA56D" stroke-width="1.5"/>
    <text text-anchor="middle" font-size="14" fill="#172033" font-family="Arial" x="1301" y="1566"><tspan x="1301" dy="0">Classify Youth /</tspan><tspan x="1301" dy="17">Trial / Life</tspan><tspan x="1301" dy="17">payment</tspan></text><rect x="1208" y="1650" width="186" height="92" fill="#C8E6C9" stroke="#6AA56D" stroke-width="1.5"/>
    <text text-anchor="middle" font-size="14" fill="#172033" font-family="Arial" x="1301" y="1701"><tspan x="1301" dy="0">Send notification</tspan></text>
    <text x="40" y="1800" font-family="Arial" font-size="13" fill="#6B7280">04-membership-application-approval.mmd</text>
  </svg>