<svg xmlns="http://www.w3.org/2000/svg" width="1182" height="1220" viewBox="0 0 1182 1220">
    <defs>
      <marker id="arrow" markerWidth="10" markerHeight="8" refX="9" refY="4" orient="auto">
        <path d="M 0 0 L 10 4 L 0 8 z" fill="#9AA3AF"/>
      </marker>
    </defs>
    <rect width="1182" height="1220" fill="#ffffff"/>
    
      <rect x="40" y="10" width="250" height="62" fill="#FFE8A6" stroke="none"/>
      <text text-anchor="middle" font-family="Arial" font-size="18" font-weight="700" fill="#222" x="165" y="48"><tspan x="165" dy="0">Scheduler</tspan></text>
      <rect x="40" y="82" width="250" height="1112" fill="#F5F5F5" stroke="none"/>
    
      <rect x="324" y="10" width="250" height="62" fill="#D9C2F5" stroke="none"/>
      <text text-anchor="middle" font-family="Arial" font-size="18" font-weight="700" fill="#222" x="449" y="33"><tspan x="449" dy="0">Membership System</tspan></text>
      <rect x="324" y="82" width="250" height="1112" fill="#F5F5F5" stroke="none"/>
    
      <rect x="608" y="10" width="250" height="62" fill="#B9E1FA" stroke="none"/>
      <text text-anchor="middle" font-family="Arial" font-size="18" font-weight="700" fill="#222" x="733" y="33"><tspan x="733" dy="0">Membership Admin</tspan></text>
      <rect x="608" y="82" width="250" height="1112" fill="#F5F5F5" stroke="none"/>
    
      <rect x="892" y="10" width="250" height="62" fill="#FFC0BE" stroke="none"/>
      <text text-anchor="middle" font-family="Arial" font-size="18" font-weight="700" fill="#222" x="1017" y="48"><tspan x="1017" dy="0">Member</tspan></text>
      <rect x="892" y="82" width="250" height="1112" fill="#F5F5F5" stroke="none"/>
    
    <path d="M 165 210 L 165 221 L 449 221 L 449 232" fill="none" stroke="#9AA3AF" stroke-width="1.5" marker-end="url(#arrow)"/><path d="M 449 328 L 449 339 L 733 339 L 733 350" fill="none" stroke="#9AA3AF" stroke-width="1.5" marker-end="url(#arrow)"/><rect x="563" y="311" width="56" height="18" fill="#ffffff" opacity="0.86"/>
        <text x="591" y="324" text-anchor="middle" font-family="Arial" font-size="13" font-weight="700" fill="#333">No</text><path d="M 449 328 L 449 468" fill="none" stroke="#9AA3AF" stroke-width="1.5" marker-end="url(#arrow)"/><rect x="421" y="388" width="56" height="18" fill="#ffffff" opacity="0.86"/>
        <text x="449" y="401" text-anchor="middle" font-family="Arial" font-size="13" font-weight="700" fill="#333">Yes</text><path d="M 449 564 L 449 586" fill="none" stroke="#9AA3AF" stroke-width="1.5" marker-end="url(#arrow)"/><rect x="421" y="547" width="56" height="18" fill="#ffffff" opacity="0.86"/>
        <text x="449" y="560" text-anchor="middle" font-family="Arial" font-size="13" font-weight="700" fill="#333">No</text><path d="M 449 564 L 449 704" fill="none" stroke="#9AA3AF" stroke-width="1.5" marker-end="url(#arrow)"/><rect x="421" y="624" width="56" height="18" fill="#ffffff" opacity="0.86"/>
        <text x="449" y="637" text-anchor="middle" font-family="Arial" font-size="13" font-weight="700" fill="#333">Yes</text><path d="M 449 800 L 449 822" fill="none" stroke="#9AA3AF" stroke-width="1.5" marker-end="url(#arrow)"/><path d="M 449 918 L 449 929 L 1017 929 L 1017 940" fill="none" stroke="#9AA3AF" stroke-width="1.5" marker-end="url(#arrow)"/><path d="M 1017 1036 L 1017 1058" fill="none" stroke="#9AA3AF" stroke-width="1.5" marker-end="url(#arrow)"/>
    <ellipse cx="165" cy="162" rx="93" ry="46" fill="#B9E1FA" stroke="#6BAED6" stroke-width="1.5"/>
      <text text-anchor="middle" font-size="15" fill="#172033" font-family="Arial" x="165" y="158.5"><tspan x="165" dy="0">Daily lifecycle</tspan><tspan x="165" dy="17">check</tspan></text><polygon points="449,234 542,282 449,330 356,282" fill="#B9E1FA" stroke="#6BAED6" stroke-width="1.5"/>
      <text text-anchor="middle" font-size="14" fill="#172033" font-family="Arial" x="449" y="287"><tspan x="449" dy="0">Valid date of birth?</tspan></text><rect x="640" y="352" width="186" height="92" fill="#B9E1FA" stroke="#6BAED6" stroke-width="1.5"/>
    <text text-anchor="middle" font-size="14" fill="#172033" font-family="Arial" x="733" y="394.5"><tspan x="733" dy="0">Status: manual DOB</tspan><tspan x="733" dy="17">completion</tspan></text><polygon points="449,470 542,518 449,566 356,518" fill="#B9E1FA" stroke="#6BAED6" stroke-width="1.5"/>
      <text text-anchor="middle" font-size="14" fill="#172033" font-family="Arial" x="449" y="514.5"><tspan x="449" dy="0">Active Youth and age</tspan><tspan x="449" dy="17">&gt;= 18?</tspan></text><rect x="356" y="588" width="186" height="92" fill="#D9C2F5" stroke="#9C6FD2" stroke-width="1.5"/>
    <text text-anchor="middle" font-size="14" fill="#172033" font-family="Arial" x="449" y="639"><tspan x="449" dy="0">Status: no change</tspan></text><rect x="356" y="706" width="186" height="92" fill="#D9C2F5" stroke="#9C6FD2" stroke-width="1.5"/>
    <text text-anchor="middle" font-size="14" fill="#172033" font-family="Arial" x="449" y="748.5"><tspan x="449" dy="0">Convert Youth to</tspan><tspan x="449" dy="17">Trial</tspan></text><rect x="356" y="824" width="186" height="92" fill="#D9C2F5" stroke="#9C6FD2" stroke-width="1.5"/>
    <text text-anchor="middle" font-size="14" fill="#172033" font-family="Arial" x="449" y="866.5"><tspan x="449" dy="0">Write lifecycle</tspan><tspan x="449" dy="17">audit log</tspan></text><rect x="924" y="942" width="186" height="92" fill="#FFC0BE" stroke="#DE7D79" stroke-width="1.5"/>
    <text text-anchor="middle" font-size="14" fill="#172033" font-family="Arial" x="1017" y="984.5"><tspan x="1017" dy="0">Send status-change</tspan><tspan x="1017" dy="17">notification</tspan></text><rect x="924" y="1060" width="186" height="92" fill="#FFC0BE" stroke="#DE7D79" stroke-width="1.5"/>
    <text text-anchor="middle" font-size="14" fill="#172033" font-family="Arial" x="1017" y="1102.5"><tspan x="1017" dy="0">Status: Active</tspan><tspan x="1017" dy="17">Trial Member</tspan></text>
    <text x="40" y="1210" font-family="Arial" font-size="13" fill="#6B7280">05-youth-to-trial-conversion.mmd</text>
  </svg>