<svg xmlns="http://www.w3.org/2000/svg" width="1182" height="1456" viewBox="0 0 1182 1456">
    <defs>
      <marker id="arrow" markerWidth="10" markerHeight="8" refX="9" refY="4" orient="auto">
        <path d="M 0 0 L 10 4 L 0 8 z" fill="#9AA3AF"/>
      </marker>
    </defs>
    <rect width="1182" height="1456" fill="#ffffff"/>
    
      <rect x="40" y="10" width="250" height="62" fill="#FFE8A6" stroke="none"/>
      <text text-anchor="middle" font-family="Arial" font-size="18" font-weight="700" fill="#222" x="165" y="48"><tspan x="165" dy="0">Scheduler</tspan></text>
      <rect x="40" y="82" width="250" height="1348" fill="#F5F5F5" stroke="none"/>
    
      <rect x="324" y="10" width="250" height="62" fill="#D9C2F5" stroke="none"/>
      <text text-anchor="middle" font-family="Arial" font-size="18" font-weight="700" fill="#222" x="449" y="33"><tspan x="449" dy="0">Membership System</tspan></text>
      <rect x="324" y="82" width="250" height="1348" fill="#F5F5F5" stroke="none"/>
    
      <rect x="608" y="10" width="250" height="62" fill="#B9E1FA" stroke="none"/>
      <text text-anchor="middle" font-family="Arial" font-size="18" font-weight="700" fill="#222" x="733" y="33"><tspan x="733" dy="0">Trial Member</tspan></text>
      <rect x="608" y="82" width="250" height="1348" fill="#F5F5F5" stroke="none"/>
    
      <rect x="892" y="10" width="250" height="62" fill="#FFC0BE" stroke="none"/>
      <text text-anchor="middle" font-family="Arial" font-size="18" font-weight="700" fill="#222" x="1017" y="33"><tspan x="1017" dy="0">Payment Service</tspan></text>
      <rect x="892" y="82" width="250" height="1348" fill="#F5F5F5" stroke="none"/>
    
    <path d="M 165 210 L 165 221 L 449 221 L 449 232" fill="none" stroke="#9AA3AF" stroke-width="1.5" marker-end="url(#arrow)"/><path d="M 449 328 L 449 350" fill="none" stroke="#9AA3AF" stroke-width="1.5" marker-end="url(#arrow)"/><rect x="421" y="311" width="56" height="18" fill="#ffffff" opacity="0.86"/>
        <text x="449" y="324" text-anchor="middle" font-family="Arial" font-size="13" font-weight="700" fill="#333">Yes</text><path d="M 449 328 L 449 468" fill="none" stroke="#9AA3AF" stroke-width="1.5" marker-end="url(#arrow)"/><rect x="421" y="388" width="56" height="18" fill="#ffffff" opacity="0.86"/>
        <text x="449" y="401" text-anchor="middle" font-family="Arial" font-size="13" font-weight="700" fill="#333">No</text><path d="M 449 446 L 449 468" fill="none" stroke="#9AA3AF" stroke-width="1.5" marker-end="url(#arrow)"/><path d="M 449 564 L 449 586" fill="none" stroke="#9AA3AF" stroke-width="1.5" marker-end="url(#arrow)"/><rect x="421" y="547" width="56" height="18" fill="#ffffff" opacity="0.86"/>
        <text x="449" y="560" text-anchor="middle" font-family="Arial" font-size="13" font-weight="700" fill="#333">No</text><path d="M 449 564 L 449 704" fill="none" stroke="#9AA3AF" stroke-width="1.5" marker-end="url(#arrow)"/><rect x="421" y="624" width="56" height="18" fill="#ffffff" opacity="0.86"/>
        <text x="449" y="637" text-anchor="middle" font-family="Arial" font-size="13" font-weight="700" fill="#333">Yes</text><path d="M 449 800 L 449 811 L 733 811 L 733 822" fill="none" stroke="#9AA3AF" stroke-width="1.5" marker-end="url(#arrow)"/><path d="M 733 918 L 733 929 L 1017 929 L 1017 940" fill="none" stroke="#9AA3AF" stroke-width="1.5" marker-end="url(#arrow)"/><path d="M 1017 1036 L 1017 1047 L 449 1047 L 449 1058" fill="none" stroke="#9AA3AF" stroke-width="1.5" marker-end="url(#arrow)"/><path d="M 449 1154 L 449 1176" fill="none" stroke="#9AA3AF" stroke-width="1.5" marker-end="url(#arrow)"/><rect x="421" y="1137" width="56" height="18" fill="#ffffff" opacity="0.86"/>
        <text x="449" y="1150" text-anchor="middle" font-family="Arial" font-size="13" font-weight="700" fill="#333">Yes</text><path d="M 449 1154 L 449 1176" fill="none" stroke="#9AA3AF" stroke-width="1.5" marker-end="url(#arrow)"/><rect x="421" y="1155" width="56" height="18" fill="#ffffff" opacity="0.86"/>
        <text x="449" y="1168" text-anchor="middle" font-family="Arial" font-size="13" font-weight="700" fill="#333">No</text><path d="M 449 1272 L 449 1283 L 733 1283 L 733 1294" fill="none" stroke="#9AA3AF" stroke-width="1.5" marker-end="url(#arrow)"/><path d="M 449 1272 L 449 1283 L 733 1283 L 733 1294" fill="none" stroke="#9AA3AF" stroke-width="1.5" marker-end="url(#arrow)"/>
    <ellipse cx="165" cy="162" rx="93" ry="46" fill="#B9E1FA" stroke="#6BAED6" stroke-width="1.5"/>
      <text text-anchor="middle" font-size="15" fill="#172033" font-family="Arial" x="165" y="158.5"><tspan x="165" dy="0">Check Trial Member</tspan><tspan x="165" dy="17">age</tspan></text><polygon points="449,234 542,282 449,330 356,282" fill="#B9E1FA" stroke="#6BAED6" stroke-width="1.5"/>
      <text text-anchor="middle" font-size="14" fill="#172033" font-family="Arial" x="449" y="287"><tspan x="449" dy="0">Approaching age 28?</tspan></text><rect x="356" y="352" width="186" height="92" fill="#D9C2F5" stroke="#9C6FD2" stroke-width="1.5"/>
    <text text-anchor="middle" font-size="14" fill="#172033" font-family="Arial" x="449" y="394.5"><tspan x="449" dy="0">Status: payment due</tspan><tspan x="449" dy="17">soon</tspan></text><polygon points="449,470 542,518 449,566 356,518" fill="#B9E1FA" stroke="#6BAED6" stroke-width="1.5"/>
      <text text-anchor="middle" font-size="14" fill="#172033" font-family="Arial" x="449" y="523"><tspan x="449" dy="0">Has turned 28?</tspan></text><rect x="356" y="588" width="186" height="92" fill="#D9C2F5" stroke="#9C6FD2" stroke-width="1.5"/>
    <text text-anchor="middle" font-size="14" fill="#172033" font-family="Arial" x="449" y="630.5"><tspan x="449" dy="0">Status: Active</tspan><tspan x="449" dy="17">Trial</tspan></text><rect x="356" y="706" width="186" height="92" fill="#D9C2F5" stroke="#9C6FD2" stroke-width="1.5"/>
    <text text-anchor="middle" font-size="14" fill="#172033" font-family="Arial" x="449" y="748.5"><tspan x="449" dy="0">Status: Pending</tspan><tspan x="449" dy="17">Life Payment</tspan></text><rect x="640" y="824" width="186" height="92" fill="#B9E1FA" stroke="#6BAED6" stroke-width="1.5"/>
    <text text-anchor="middle" font-size="14" fill="#172033" font-family="Arial" x="733" y="866.5"><tspan x="733" dy="0">Open Life payment</tspan><tspan x="733" dy="17">link</tspan></text><rect x="924" y="942" width="186" height="92" fill="#FFC0BE" stroke="#DE7D79" stroke-width="1.5"/>
    <text text-anchor="middle" font-size="14" fill="#172033" font-family="Arial" x="1017" y="984.5"><tspan x="1017" dy="0">Process HKD 2000</tspan><tspan x="1017" dy="17">payment</tspan></text><polygon points="449,1060 542,1108 449,1156 356,1108" fill="#B9E1FA" stroke="#6BAED6" stroke-width="1.5"/>
      <text text-anchor="middle" font-size="14" fill="#172033" font-family="Arial" x="449" y="1113"><tspan x="449" dy="0">Payment completed?</tspan></text><rect x="356" y="1178" width="186" height="92" fill="#D9C2F5" stroke="#9C6FD2" stroke-width="1.5"/>
    <text text-anchor="middle" font-size="14" fill="#172033" font-family="Arial" x="449" y="1220.5"><tspan x="449" dy="0">Status: Active Life</tspan><tspan x="449" dy="17">Member</tspan></text><rect x="356" y="1178" width="186" height="92" fill="#D9C2F5" stroke="#9C6FD2" stroke-width="1.5"/>
    <text text-anchor="middle" font-size="14" fill="#172033" font-family="Arial" x="449" y="1220.5"><tspan x="449" dy="0">Status: Inactive</tspan><tspan x="449" dy="17">membership</tspan></text><rect x="640" y="1296" width="186" height="92" fill="#B9E1FA" stroke="#6BAED6" stroke-width="1.5"/>
    <text text-anchor="middle" font-size="14" fill="#172033" font-family="Arial" x="733" y="1338.5"><tspan x="733" dy="0">Send status</tspan><tspan x="733" dy="17">notification</tspan></text>
    <text x="40" y="1446" font-family="Arial" font-size="13" fill="#6B7280">06-trial-to-life-payment.mmd</text>
  </svg>