<svg xmlns="http://www.w3.org/2000/svg" width="1466" height="1810" viewBox="0 0 1466 1810">
    <defs>
      <marker id="arrow" markerWidth="10" markerHeight="8" refX="9" refY="4" orient="auto">
        <path d="M 0 0 L 10 4 L 0 8 z" fill="#9AA3AF"/>
      </marker>
    </defs>
    <rect width="1466" height="1810" fill="#ffffff"/>
    
      <rect x="40" y="10" width="250" height="62" fill="#FFE8A6" stroke="none"/>
      <text text-anchor="middle" font-family="Arial" font-size="18" font-weight="700" fill="#222" x="165" y="48"><tspan x="165" dy="0">Member</tspan></text>
      <rect x="40" y="82" width="250" height="1702" fill="#F5F5F5" stroke="none"/>
    
      <rect x="324" y="10" width="250" height="62" fill="#D9C2F5" stroke="none"/>
      <text text-anchor="middle" font-family="Arial" font-size="18" font-weight="700" fill="#222" x="449" y="33"><tspan x="449" dy="0">Portal Events</tspan></text>
      <rect x="324" y="82" width="250" height="1702" fill="#F5F5F5" stroke="none"/>
    
      <rect x="608" y="10" width="250" height="62" fill="#B9E1FA" stroke="none"/>
      <text text-anchor="middle" font-family="Arial" font-size="18" font-weight="700" fill="#222" x="733" y="33"><tspan x="733" dy="0">Event System</tspan></text>
      <rect x="608" y="82" width="250" height="1702" fill="#F5F5F5" stroke="none"/>
    
      <rect x="892" y="10" width="250" height="62" fill="#FFC0BE" stroke="none"/>
      <text text-anchor="middle" font-family="Arial" font-size="18" font-weight="700" fill="#222" x="1017" y="48"><tspan x="1017" dy="0">Payment</tspan></text>
      <rect x="892" y="82" width="250" height="1702" fill="#F5F5F5" stroke="none"/>
    
      <rect x="1176" y="10" width="250" height="62" fill="#C8E6C9" stroke="none"/>
      <text text-anchor="middle" font-family="Arial" font-size="18" font-weight="700" fill="#222" x="1301" y="33"><tspan x="1301" dy="0">Check-in Staff</tspan></text>
      <rect x="1176" y="82" width="250" height="1702" fill="#F5F5F5" stroke="none"/>
    
    <path d="M 165 210 L 165 232" fill="none" stroke="#9AA3AF" stroke-width="1.5" marker-end="url(#arrow)"/><path d="M 165 328 L 165 339 L 733 339 L 733 350" fill="none" stroke="#9AA3AF" stroke-width="1.5" marker-end="url(#arrow)"/><path d="M 733 446 L 733 457 L 449 457 L 449 468" fill="none" stroke="#9AA3AF" stroke-width="1.5" marker-end="url(#arrow)"/><rect x="563" y="429" width="56" height="18" fill="#ffffff" opacity="0.86"/>
        <text x="591" y="442" text-anchor="middle" font-family="Arial" font-size="13" font-weight="700" fill="#333">No</text><path d="M 733 446 L 733 586" fill="none" stroke="#9AA3AF" stroke-width="1.5" marker-end="url(#arrow)"/><rect x="705" y="506" width="56" height="18" fill="#ffffff" opacity="0.86"/>
        <text x="733" y="519" text-anchor="middle" font-family="Arial" font-size="13" font-weight="700" fill="#333">Yes</text><path d="M 733 682 L 733 693 L 449 693 L 449 704" fill="none" stroke="#9AA3AF" stroke-width="1.5" marker-end="url(#arrow)"/><rect x="563" y="665" width="56" height="18" fill="#ffffff" opacity="0.86"/>
        <text x="591" y="678" text-anchor="middle" font-family="Arial" font-size="13" font-weight="700" fill="#333">No</text><path d="M 733 682 L 733 822" fill="none" stroke="#9AA3AF" stroke-width="1.5" marker-end="url(#arrow)"/><rect x="705" y="742" width="56" height="18" fill="#ffffff" opacity="0.86"/>
        <text x="733" y="755" text-anchor="middle" font-family="Arial" font-size="13" font-weight="700" fill="#333">Yes</text><path d="M 733 918 L 733 940" fill="none" stroke="#9AA3AF" stroke-width="1.5" marker-end="url(#arrow)"/><rect x="705" y="901" width="56" height="18" fill="#ffffff" opacity="0.86"/>
        <text x="733" y="914" text-anchor="middle" font-family="Arial" font-size="13" font-weight="700" fill="#333">No</text><path d="M 733 918 L 733 929 L 165 929 L 165 940" fill="none" stroke="#9AA3AF" stroke-width="1.5" marker-end="url(#arrow)"/><rect x="421" y="919" width="56" height="18" fill="#ffffff" opacity="0.86"/>
        <text x="449" y="932" text-anchor="middle" font-family="Arial" font-size="13" font-weight="700" fill="#333">Yes</text><path d="M 165 1036 L 165 1047 L 1017 1047 L 1017 1058" fill="none" stroke="#9AA3AF" stroke-width="1.5" marker-end="url(#arrow)"/><path d="M 1017 1154 L 1017 1176" fill="none" stroke="#9AA3AF" stroke-width="1.5" marker-end="url(#arrow)"/><rect x="989" y="1137" width="56" height="18" fill="#ffffff" opacity="0.86"/>
        <text x="1017" y="1150" text-anchor="middle" font-family="Arial" font-size="13" font-weight="700" fill="#333">No</text><path d="M 1017 1272 L 1017 1058" fill="none" stroke="#9AA3AF" stroke-width="1.5" marker-end="url(#arrow)"/><path d="M 1017 1154 L 1017 1224 L 733 1224 L 733 1294" fill="none" stroke="#9AA3AF" stroke-width="1.5" marker-end="url(#arrow)"/><rect x="847" y="1214" width="56" height="18" fill="#ffffff" opacity="0.86"/>
        <text x="875" y="1227" text-anchor="middle" font-family="Arial" font-size="13" font-weight="700" fill="#333">Yes</text><path d="M 733 1390 L 733 1412" fill="none" stroke="#9AA3AF" stroke-width="1.5" marker-end="url(#arrow)"/><path d="M 733 1508 L 733 1519 L 1301 1519 L 1301 1530" fill="none" stroke="#9AA3AF" stroke-width="1.5" marker-end="url(#arrow)"/><path d="M 1301 1626 L 1301 1637 L 165 1637 L 165 1648" fill="none" stroke="#9AA3AF" stroke-width="1.5" marker-end="url(#arrow)"/><rect x="705" y="1609" width="56" height="18" fill="#ffffff" opacity="0.86"/>
        <text x="733" y="1622" text-anchor="middle" font-family="Arial" font-size="13" font-weight="700" fill="#333">No</text><path d="M 1301 1626 L 1301 1648" fill="none" stroke="#9AA3AF" stroke-width="1.5" marker-end="url(#arrow)"/><rect x="1273" y="1627" width="56" height="18" fill="#ffffff" opacity="0.86"/>
        <text x="1301" y="1640" text-anchor="middle" font-family="Arial" font-size="13" font-weight="700" fill="#333">Yes</text>
    <ellipse cx="165" cy="162" rx="93" ry="46" fill="#B9E1FA" stroke="#6BAED6" stroke-width="1.5"/>
      <text text-anchor="middle" font-size="15" fill="#172033" font-family="Arial" x="165" y="167"><tspan x="165" dy="0">Start</tspan></text><rect x="72" y="234" width="186" height="92" fill="#FFE8A6" stroke="#D6AE3E" stroke-width="1.5"/>
    <text text-anchor="middle" font-size="14" fill="#172033" font-family="Arial" x="165" y="285"><tspan x="165" dy="0">Open portal Events</tspan></text><polygon points="733,352 826,400 733,448 640,400" fill="#B9E1FA" stroke="#6BAED6" stroke-width="1.5"/>
      <text text-anchor="middle" font-size="14" fill="#172033" font-family="Arial" x="733" y="405"><tspan x="733" dy="0">Membership active?</tspan></text><rect x="356" y="470" width="186" height="92" fill="#D9C2F5" stroke="#9C6FD2" stroke-width="1.5"/>
    <text text-anchor="middle" font-size="14" fill="#172033" font-family="Arial" x="449" y="521"><tspan x="449" dy="0">Status: blocked</tspan></text><polygon points="733,588 826,636 733,684 640,636" fill="#B9E1FA" stroke="#6BAED6" stroke-width="1.5"/>
      <text text-anchor="middle" font-size="14" fill="#172033" font-family="Arial" x="733" y="632.5"><tspan x="733" dy="0">Eligible for event</tspan><tspan x="733" dy="17">audience?</tspan></text><rect x="356" y="706" width="186" height="92" fill="#D9C2F5" stroke="#9C6FD2" stroke-width="1.5"/>
    <text text-anchor="middle" font-size="14" fill="#172033" font-family="Arial" x="449" y="748.5"><tspan x="449" dy="0">Status: not</tspan><tspan x="449" dy="17">eligible</tspan></text><polygon points="733,824 826,872 733,920 640,872" fill="#B9E1FA" stroke="#6BAED6" stroke-width="1.5"/>
      <text text-anchor="middle" font-size="14" fill="#172033" font-family="Arial" x="733" y="877"><tspan x="733" dy="0">Capacity available?</tspan></text><rect x="640" y="942" width="186" height="92" fill="#B9E1FA" stroke="#6BAED6" stroke-width="1.5"/>
    <text text-anchor="middle" font-size="14" fill="#172033" font-family="Arial" x="733" y="993"><tspan x="733" dy="0">Status: waitlisted</tspan></text><rect x="72" y="942" width="186" height="92" fill="#FFE8A6" stroke="#D6AE3E" stroke-width="1.5"/>
    <text text-anchor="middle" font-size="14" fill="#172033" font-family="Arial" x="165" y="993"><tspan x="165" dy="0">Submit registration</tspan></text><polygon points="1017,1060 1110,1108 1017,1156 924,1108" fill="#B9E1FA" stroke="#6BAED6" stroke-width="1.5"/>
      <text text-anchor="middle" font-size="14" fill="#172033" font-family="Arial" x="1017" y="1104.5"><tspan x="1017" dy="0">Payment complete /</tspan><tspan x="1017" dy="17">not required?</tspan></text><rect x="924" y="1178" width="186" height="92" fill="#FFC0BE" stroke="#DE7D79" stroke-width="1.5"/>
    <text text-anchor="middle" font-size="14" fill="#172033" font-family="Arial" x="1017" y="1220.5"><tspan x="1017" dy="0">Status: pending</tspan><tspan x="1017" dy="17">payment</tspan></text><rect x="640" y="1296" width="186" height="92" fill="#B9E1FA" stroke="#6BAED6" stroke-width="1.5"/>
    <text text-anchor="middle" font-size="14" fill="#172033" font-family="Arial" x="733" y="1347"><tspan x="733" dy="0">Status: confirmed</tspan></text><rect x="640" y="1414" width="186" height="92" fill="#B9E1FA" stroke="#6BAED6" stroke-width="1.5"/>
    <text text-anchor="middle" font-size="14" fill="#172033" font-family="Arial" x="733" y="1465"><tspan x="733" dy="0">Generate ticket QR</tspan></text><polygon points="1301,1532 1394,1580 1301,1628 1208,1580" fill="#B9E1FA" stroke="#6BAED6" stroke-width="1.5"/>
      <text text-anchor="middle" font-size="14" fill="#172033" font-family="Arial" x="1301" y="1585"><tspan x="1301" dy="0">QR scanned at event?</tspan></text><rect x="72" y="1650" width="186" height="92" fill="#FFE8A6" stroke="#D6AE3E" stroke-width="1.5"/>
    <text text-anchor="middle" font-size="14" fill="#172033" font-family="Arial" x="165" y="1692.5"><tspan x="165" dy="0">Status: ticket</tspan><tspan x="165" dy="17">active</tspan></text><rect x="1208" y="1650" width="186" height="92" fill="#C8E6C9" stroke="#6AA56D" stroke-width="1.5"/>
    <text text-anchor="middle" font-size="14" fill="#172033" font-family="Arial" x="1301" y="1701"><tspan x="1301" dy="0">Status: checked-in</tspan></text>
    <text x="40" y="1800" font-family="Arial" font-size="13" fill="#6B7280">08-member-event-registration-qr.mmd</text>
  </svg>