<svg xmlns="http://www.w3.org/2000/svg" width="1466" height="1928" viewBox="0 0 1466 1928">
    <defs>
      <marker id="arrow" markerWidth="10" markerHeight="8" refX="9" refY="4" orient="auto">
        <path d="M 0 0 L 10 4 L 0 8 z" fill="#9AA3AF"/>
      </marker>
    </defs>
    <rect width="1466" height="1928" fill="#ffffff"/>
    
      <rect x="40" y="10" width="250" height="62" fill="#FFE8A6" stroke="none"/>
      <text text-anchor="middle" font-family="Arial" font-size="18" font-weight="700" fill="#222" x="165" y="48"><tspan x="165" dy="0">Member</tspan></text>
      <rect x="40" y="82" width="250" height="1820" fill="#F5F5F5" stroke="none"/>
    
      <rect x="324" y="10" width="250" height="62" fill="#D9C2F5" stroke="none"/>
      <text text-anchor="middle" font-family="Arial" font-size="18" font-weight="700" fill="#222" x="449" y="33"><tspan x="449" dy="0">Portal Booking</tspan></text>
      <rect x="324" y="82" width="250" height="1820" fill="#F5F5F5" stroke="none"/>
    
      <rect x="608" y="10" width="250" height="62" fill="#B9E1FA" stroke="none"/>
      <text text-anchor="middle" font-family="Arial" font-size="18" font-weight="700" fill="#222" x="733" y="33"><tspan x="733" dy="0">Booking System</tspan></text>
      <rect x="608" y="82" width="250" height="1820" fill="#F5F5F5" stroke="none"/>
    
      <rect x="892" y="10" width="250" height="62" fill="#FFC0BE" stroke="none"/>
      <text text-anchor="middle" font-family="Arial" font-size="18" font-weight="700" fill="#222" x="1017" y="33"><tspan x="1017" dy="0">Payment / Approval</tspan></text>
      <rect x="892" y="82" width="250" height="1820" fill="#F5F5F5" stroke="none"/>
    
      <rect x="1176" y="10" width="250" height="62" fill="#C8E6C9" stroke="none"/>
      <text text-anchor="middle" font-family="Arial" font-size="18" font-weight="700" fill="#222" x="1301" y="48"><tspan x="1301" dy="0">Staff</tspan></text>
      <rect x="1176" y="82" width="250" height="1820" fill="#F5F5F5" stroke="none"/>
    
    <path d="M 165 210 L 165 232" fill="none" stroke="#9AA3AF" stroke-width="1.5" marker-end="url(#arrow)"/><path d="M 165 328 L 165 339 L 733 339 L 733 350" fill="none" stroke="#9AA3AF" stroke-width="1.5" marker-end="url(#arrow)"/><path d="M 733 446 L 733 457 L 449 457 L 449 468" fill="none" stroke="#9AA3AF" stroke-width="1.5" marker-end="url(#arrow)"/><rect x="563" y="429" width="56" height="18" fill="#ffffff" opacity="0.86"/>
        <text x="591" y="442" text-anchor="middle" font-family="Arial" font-size="13" font-weight="700" fill="#333">No</text><path d="M 733 446 L 733 516 L 165 516 L 165 586" fill="none" stroke="#9AA3AF" stroke-width="1.5" marker-end="url(#arrow)"/><rect x="421" y="506" width="56" height="18" fill="#ffffff" opacity="0.86"/>
        <text x="449" y="519" text-anchor="middle" font-family="Arial" font-size="13" font-weight="700" fill="#333">Yes</text><path d="M 165 682 L 165 693 L 733 693 L 733 704" fill="none" stroke="#9AA3AF" stroke-width="1.5" marker-end="url(#arrow)"/><path d="M 733 800 L 733 811 L 449 811 L 449 822" fill="none" stroke="#9AA3AF" stroke-width="1.5" marker-end="url(#arrow)"/><rect x="563" y="783" width="56" height="18" fill="#ffffff" opacity="0.86"/>
        <text x="591" y="796" text-anchor="middle" font-family="Arial" font-size="13" font-weight="700" fill="#333">No</text><path d="M 449 918 L 449 752 L 165 752 L 165 586" fill="none" stroke="#9AA3AF" stroke-width="1.5" marker-end="url(#arrow)"/><path d="M 733 800 L 733 940" fill="none" stroke="#9AA3AF" stroke-width="1.5" marker-end="url(#arrow)"/><rect x="705" y="860" width="56" height="18" fill="#ffffff" opacity="0.86"/>
        <text x="733" y="873" text-anchor="middle" font-family="Arial" font-size="13" font-weight="700" fill="#333">Yes</text><path d="M 733 1036 L 733 1047 L 165 1047 L 165 1058" fill="none" stroke="#9AA3AF" stroke-width="1.5" marker-end="url(#arrow)"/><path d="M 165 1154 L 165 1165 L 1017 1165 L 1017 1176" fill="none" stroke="#9AA3AF" stroke-width="1.5" marker-end="url(#arrow)"/><path d="M 1017 1272 L 1017 1401 L 733 1401 L 733 1530" fill="none" stroke="#9AA3AF" stroke-width="1.5" marker-end="url(#arrow)"/><rect x="847" y="1373" width="56" height="18" fill="#ffffff" opacity="0.86"/>
        <text x="875" y="1386" text-anchor="middle" font-family="Arial" font-size="13" font-weight="700" fill="#333">No</text><path d="M 1017 1272 L 1017 1294" fill="none" stroke="#9AA3AF" stroke-width="1.5" marker-end="url(#arrow)"/><rect x="989" y="1273" width="56" height="18" fill="#ffffff" opacity="0.86"/>
        <text x="1017" y="1286" text-anchor="middle" font-family="Arial" font-size="13" font-weight="700" fill="#333">Yes</text><path d="M 1017 1390 L 1017 1401 L 1301 1401 L 1301 1412" fill="none" stroke="#9AA3AF" stroke-width="1.5" marker-end="url(#arrow)"/><path d="M 1301 1508 L 1301 1530" fill="none" stroke="#9AA3AF" stroke-width="1.5" marker-end="url(#arrow)"/><rect x="1273" y="1491" width="56" height="18" fill="#ffffff" opacity="0.86"/>
        <text x="1301" y="1504" text-anchor="middle" font-family="Arial" font-size="13" font-weight="700" fill="#333">No</text><path d="M 1301 1508 L 1301 1519 L 733 1519 L 733 1530" fill="none" stroke="#9AA3AF" stroke-width="1.5" marker-end="url(#arrow)"/><rect x="989" y="1509" width="56" height="18" fill="#ffffff" opacity="0.86"/>
        <text x="1017" y="1522" text-anchor="middle" font-family="Arial" font-size="13" font-weight="700" fill="#333">Yes</text><path d="M 733 1626 L 733 1637 L 165 1637 L 165 1648" fill="none" stroke="#9AA3AF" stroke-width="1.5" marker-end="url(#arrow)"/><path d="M 165 1744 L 165 1755 L 733 1755 L 733 1766" fill="none" stroke="#9AA3AF" stroke-width="1.5" marker-end="url(#arrow)"/><rect x="421" y="1727" width="56" height="18" fill="#ffffff" opacity="0.86"/>
        <text x="449" y="1740" text-anchor="middle" font-family="Arial" font-size="13" font-weight="700" fill="#333">Yes</text><path d="M 165 1744 L 165 1637 L 733 1637 L 733 1530" fill="none" stroke="#9AA3AF" stroke-width="1.5" marker-end="url(#arrow)"/><rect x="421" y="1627" width="56" height="18" fill="#ffffff" opacity="0.86"/>
        <text x="449" y="1640" text-anchor="middle" font-family="Arial" font-size="13" font-weight="700" fill="#333">No</text>
    <ellipse cx="165" cy="162" rx="93" ry="46" fill="#B9E1FA" stroke="#6BAED6" stroke-width="1.5"/>
      <text text-anchor="middle" font-size="15" fill="#172033" font-family="Arial" x="165" y="167"><tspan x="165" dy="0">Start</tspan></text><rect x="72" y="234" width="186" height="92" fill="#FFE8A6" stroke="#D6AE3E" stroke-width="1.5"/>
    <text text-anchor="middle" font-size="14" fill="#172033" font-family="Arial" x="165" y="285"><tspan x="165" dy="0">Open portal Booking</tspan></text><polygon points="733,352 826,400 733,448 640,400" fill="#B9E1FA" stroke="#6BAED6" stroke-width="1.5"/>
      <text text-anchor="middle" font-size="14" fill="#172033" font-family="Arial" x="733" y="396.5"><tspan x="733" dy="0">Member allowed to</tspan><tspan x="733" dy="17">book?</tspan></text><rect x="356" y="470" width="186" height="92" fill="#D9C2F5" stroke="#9C6FD2" stroke-width="1.5"/>
    <text text-anchor="middle" font-size="14" fill="#172033" font-family="Arial" x="449" y="512.5"><tspan x="449" dy="0">Status: booking</tspan><tspan x="449" dy="17">blocked</tspan></text><rect x="72" y="588" width="186" height="92" fill="#FFE8A6" stroke="#D6AE3E" stroke-width="1.5"/>
    <text text-anchor="middle" font-size="14" fill="#172033" font-family="Arial" x="165" y="630.5"><tspan x="165" dy="0">Select facility and</tspan><tspan x="165" dy="17">slot</tspan></text><polygon points="733,706 826,754 733,802 640,754" fill="#B9E1FA" stroke="#6BAED6" stroke-width="1.5"/>
      <text text-anchor="middle" font-size="14" fill="#172033" font-family="Arial" x="733" y="750.5"><tspan x="733" dy="0">Slot available and</tspan><tspan x="733" dy="17">not blackout?</tspan></text><rect x="356" y="824" width="186" height="92" fill="#D9C2F5" stroke="#9C6FD2" stroke-width="1.5"/>
    <text text-anchor="middle" font-size="14" fill="#172033" font-family="Arial" x="449" y="866.5"><tspan x="449" dy="0">Status: unavailable</tspan><tspan x="449" dy="17">slot</tspan></text><rect x="640" y="942" width="186" height="92" fill="#B9E1FA" stroke="#6BAED6" stroke-width="1.5"/>
    <text text-anchor="middle" font-size="14" fill="#172033" font-family="Arial" x="733" y="984.5"><tspan x="733" dy="0">Status: draft</tspan><tspan x="733" dy="17">request</tspan></text><rect x="72" y="1060" width="186" height="92" fill="#FFE8A6" stroke="#D6AE3E" stroke-width="1.5"/>
    <text text-anchor="middle" font-size="14" fill="#172033" font-family="Arial" x="165" y="1102.5"><tspan x="165" dy="0">Submit booking</tspan><tspan x="165" dy="17">request</tspan></text><polygon points="1017,1178 1110,1226 1017,1274 924,1226" fill="#B9E1FA" stroke="#6BAED6" stroke-width="1.5"/>
      <text text-anchor="middle" font-size="14" fill="#172033" font-family="Arial" x="1017" y="1222.5"><tspan x="1017" dy="0">Payment / approval</tspan><tspan x="1017" dy="17">required?</tspan></text><rect x="924" y="1296" width="186" height="92" fill="#FFC0BE" stroke="#DE7D79" stroke-width="1.5"/>
    <text text-anchor="middle" font-size="14" fill="#172033" font-family="Arial" x="1017" y="1338.5"><tspan x="1017" dy="0">Status: pending</tspan><tspan x="1017" dy="17">payment / approval</tspan></text><polygon points="1301,1414 1394,1462 1301,1510 1208,1462" fill="#B9E1FA" stroke="#6BAED6" stroke-width="1.5"/>
      <text text-anchor="middle" font-size="14" fill="#172033" font-family="Arial" x="1301" y="1467"><tspan x="1301" dy="0">Staff approve?</tspan></text><rect x="1208" y="1532" width="186" height="92" fill="#C8E6C9" stroke="#6AA56D" stroke-width="1.5"/>
    <text text-anchor="middle" font-size="14" fill="#172033" font-family="Arial" x="1301" y="1583"><tspan x="1301" dy="0">Status: rejected</tspan></text><rect x="640" y="1532" width="186" height="92" fill="#B9E1FA" stroke="#6BAED6" stroke-width="1.5"/>
    <text text-anchor="middle" font-size="14" fill="#172033" font-family="Arial" x="733" y="1583"><tspan x="733" dy="0">Status: approved</tspan></text><polygon points="165,1650 258,1698 165,1746 72,1698" fill="#B9E1FA" stroke="#6BAED6" stroke-width="1.5"/>
      <text text-anchor="middle" font-size="14" fill="#172033" font-family="Arial" x="165" y="1694.5"><tspan x="165" dy="0">Cancel before</tspan><tspan x="165" dy="17">cutoff?</tspan></text><rect x="640" y="1768" width="186" height="92" fill="#B9E1FA" stroke="#6BAED6" stroke-width="1.5"/>
    <text text-anchor="middle" font-size="14" fill="#172033" font-family="Arial" x="733" y="1819"><tspan x="733" dy="0">Status: cancelled</tspan></text>
    <text x="40" y="1918" font-family="Arial" font-size="13" fill="#6B7280">09-portal-only-booking.mmd</text>
  </svg>