<svg xmlns="http://www.w3.org/2000/svg" width="1182" height="1810" viewBox="0 0 1182 1810">
    <defs>
      <marker id="arrow" markerWidth="10" markerHeight="8" refX="9" refY="4" orient="auto">
        <path d="M 0 0 L 10 4 L 0 8 z" fill="#9AA3AF"/>
      </marker>
    </defs>
    <rect width="1182" height="1810" fill="#ffffff"/>
    
      <rect x="40" y="10" width="250" height="62" fill="#FFE8A6" stroke="none"/>
      <text text-anchor="middle" font-family="Arial" font-size="18" font-weight="700" fill="#222" x="165" y="48"><tspan x="165" dy="0">Member</tspan></text>
      <rect x="40" y="82" width="250" height="1702" fill="#F5F5F5" stroke="none"/>
    
      <rect x="324" y="10" width="250" height="62" fill="#D9C2F5" stroke="none"/>
      <text text-anchor="middle" font-family="Arial" font-size="18" font-weight="700" fill="#222" x="449" y="33"><tspan x="449" dy="0">Portal Support</tspan></text>
      <rect x="324" y="82" width="250" height="1702" fill="#F5F5F5" stroke="none"/>
    
      <rect x="608" y="10" width="250" height="62" fill="#B9E1FA" stroke="none"/>
      <text text-anchor="middle" font-family="Arial" font-size="18" font-weight="700" fill="#222" x="733" y="33"><tspan x="733" dy="0">Support System</tspan></text>
      <rect x="608" y="82" width="250" height="1702" fill="#F5F5F5" stroke="none"/>
    
      <rect x="892" y="10" width="250" height="62" fill="#FFC0BE" stroke="none"/>
      <text text-anchor="middle" font-family="Arial" font-size="18" font-weight="700" fill="#222" x="1017" y="48"><tspan x="1017" dy="0">Staff</tspan></text>
      <rect x="892" y="82" width="250" height="1702" fill="#F5F5F5" stroke="none"/>
    
    <path d="M 165 210 L 165 232" fill="none" stroke="#9AA3AF" stroke-width="1.5" marker-end="url(#arrow)"/><path d="M 165 328 L 165 339 L 449 339 L 449 350" fill="none" stroke="#9AA3AF" stroke-width="1.5" marker-end="url(#arrow)"/><path d="M 449 446 L 449 468" fill="none" stroke="#9AA3AF" stroke-width="1.5" marker-end="url(#arrow)"/><path d="M 449 564 L 449 575 L 165 575 L 165 586" fill="none" stroke="#9AA3AF" stroke-width="1.5" marker-end="url(#arrow)"/><path d="M 165 682 L 165 693 L 733 693 L 733 704" fill="none" stroke="#9AA3AF" stroke-width="1.5" marker-end="url(#arrow)"/><path d="M 733 800 L 733 811 L 449 811 L 449 822" fill="none" stroke="#9AA3AF" stroke-width="1.5" marker-end="url(#arrow)"/><rect x="563" y="783" width="56" height="18" fill="#ffffff" opacity="0.86"/>
        <text x="591" y="796" text-anchor="middle" font-family="Arial" font-size="13" font-weight="700" fill="#333">No</text><path d="M 449 918 L 449 752 L 165 752 L 165 586" fill="none" stroke="#9AA3AF" stroke-width="1.5" marker-end="url(#arrow)"/><path d="M 733 800 L 733 940" fill="none" stroke="#9AA3AF" stroke-width="1.5" marker-end="url(#arrow)"/><rect x="705" y="860" width="56" height="18" fill="#ffffff" opacity="0.86"/>
        <text x="733" y="873" text-anchor="middle" font-family="Arial" font-size="13" font-weight="700" fill="#333">Yes</text><path d="M 733 1036 L 733 1058" fill="none" stroke="#9AA3AF" stroke-width="1.5" marker-end="url(#arrow)"/><path d="M 733 1154 L 733 1165 L 1017 1165 L 1017 1176" fill="none" stroke="#9AA3AF" stroke-width="1.5" marker-end="url(#arrow)"/><path d="M 1017 1272 L 1017 1294" fill="none" stroke="#9AA3AF" stroke-width="1.5" marker-end="url(#arrow)"/><path d="M 1017 1390 L 1017 1401 L 165 1401 L 165 1412" fill="none" stroke="#9AA3AF" stroke-width="1.5" marker-end="url(#arrow)"/><rect x="563" y="1373" width="56" height="18" fill="#ffffff" opacity="0.86"/>
        <text x="591" y="1386" text-anchor="middle" font-family="Arial" font-size="13" font-weight="700" fill="#333">Yes</text><path d="M 165 1508 L 165 586" fill="none" stroke="#9AA3AF" stroke-width="1.5" marker-end="url(#arrow)"/><path d="M 1017 1390 L 1017 1530" fill="none" stroke="#9AA3AF" stroke-width="1.5" marker-end="url(#arrow)"/><rect x="989" y="1450" width="56" height="18" fill="#ffffff" opacity="0.86"/>
        <text x="1017" y="1463" text-anchor="middle" font-family="Arial" font-size="13" font-weight="700" fill="#333">No</text><path d="M 1017 1626 L 1017 1648" fill="none" stroke="#9AA3AF" stroke-width="1.5" marker-end="url(#arrow)"/>
    <ellipse cx="165" cy="162" rx="93" ry="46" fill="#B9E1FA" stroke="#6BAED6" stroke-width="1.5"/>
      <text text-anchor="middle" font-size="15" fill="#172033" font-family="Arial" x="165" y="167"><tspan x="165" dy="0">Start</tspan></text><rect x="72" y="234" width="186" height="92" fill="#FFE8A6" stroke="#D6AE3E" stroke-width="1.5"/>
    <text text-anchor="middle" font-size="14" fill="#172033" font-family="Arial" x="165" y="285"><tspan x="165" dy="0">Open portal Support</tspan></text><rect x="356" y="352" width="186" height="92" fill="#D9C2F5" stroke="#9C6FD2" stroke-width="1.5"/>
    <text text-anchor="middle" font-size="14" fill="#172033" font-family="Arial" x="449" y="403"><tspan x="449" dy="0">Choose case type</tspan></text><rect x="356" y="470" width="186" height="92" fill="#D9C2F5" stroke="#9C6FD2" stroke-width="1.5"/>
    <text text-anchor="middle" font-size="14" fill="#172033" font-family="Arial" x="449" y="521"><tspan x="449" dy="0">Status: draft case</tspan></text><rect x="72" y="588" width="186" height="92" fill="#FFE8A6" stroke="#D6AE3E" stroke-width="1.5"/>
    <text text-anchor="middle" font-size="14" fill="#172033" font-family="Arial" x="165" y="630.5"><tspan x="165" dy="0">Enter details /</tspan><tspan x="165" dy="17">attachment</tspan></text><polygon points="733,706 826,754 733,802 640,754" fill="#B9E1FA" stroke="#6BAED6" stroke-width="1.5"/>
      <text text-anchor="middle" font-size="14" fill="#172033" font-family="Arial" x="733" y="750.5"><tspan x="733" dy="0">Required fields</tspan><tspan x="733" dy="17">complete?</tspan></text><rect x="356" y="824" width="186" height="92" fill="#D9C2F5" stroke="#9C6FD2" stroke-width="1.5"/>
    <text text-anchor="middle" font-size="14" fill="#172033" font-family="Arial" x="449" y="866.5"><tspan x="449" dy="0">Status: validation</tspan><tspan x="449" dy="17">error</tspan></text><rect x="640" y="942" width="186" height="92" fill="#B9E1FA" stroke="#6BAED6" stroke-width="1.5"/>
    <text text-anchor="middle" font-size="14" fill="#172033" font-family="Arial" x="733" y="993"><tspan x="733" dy="0">Status: submitted</tspan></text><rect x="640" y="1060" width="186" height="92" fill="#B9E1FA" stroke="#6BAED6" stroke-width="1.5"/>
    <text text-anchor="middle" font-size="14" fill="#172033" font-family="Arial" x="733" y="1102.5"><tspan x="733" dy="0">Assign to staff</tspan><tspan x="733" dy="17">queue</tspan></text><rect x="924" y="1178" width="186" height="92" fill="#FFC0BE" stroke="#DE7D79" stroke-width="1.5"/>
    <text text-anchor="middle" font-size="14" fill="#172033" font-family="Arial" x="1017" y="1229"><tspan x="1017" dy="0">Status: open</tspan></text><polygon points="1017,1296 1110,1344 1017,1392 924,1344" fill="#B9E1FA" stroke="#6BAED6" stroke-width="1.5"/>
      <text text-anchor="middle" font-size="14" fill="#172033" font-family="Arial" x="1017" y="1340.5"><tspan x="1017" dy="0">Need more</tspan><tspan x="1017" dy="17">information?</tspan></text><rect x="72" y="1414" width="186" height="92" fill="#FFE8A6" stroke="#D6AE3E" stroke-width="1.5"/>
    <text text-anchor="middle" font-size="14" fill="#172033" font-family="Arial" x="165" y="1456.5"><tspan x="165" dy="0">Status: waiting for</tspan><tspan x="165" dy="17">member</tspan></text><rect x="924" y="1532" width="186" height="92" fill="#FFC0BE" stroke="#DE7D79" stroke-width="1.5"/>
    <text text-anchor="middle" font-size="14" fill="#172033" font-family="Arial" x="1017" y="1583"><tspan x="1017" dy="0">Status: resolved</tspan></text><rect x="924" y="1650" width="186" height="92" fill="#FFC0BE" stroke="#DE7D79" stroke-width="1.5"/>
    <text text-anchor="middle" font-size="14" fill="#172033" font-family="Arial" x="1017" y="1701"><tspan x="1017" dy="0">Status: closed</tspan></text>
    <text x="40" y="1800" font-family="Arial" font-size="13" fill="#6B7280">10-support-case-submission.mmd</text>
  </svg>