<svg xmlns="http://www.w3.org/2000/svg" width="1182" height="1574" viewBox="0 0 1182 1574">
    <defs>
      <marker id="arrow" markerWidth="10" markerHeight="8" refX="9" refY="4" orient="auto">
        <path d="M 0 0 L 10 4 L 0 8 z" fill="#9AA3AF"/>
      </marker>
    </defs>
    <rect width="1182" height="1574" fill="#ffffff"/>
    
      <rect x="40" y="10" width="250" height="62" fill="#FFE8A6" stroke="none"/>
      <text text-anchor="middle" font-family="Arial" font-size="18" font-weight="700" fill="#222" x="165" y="33"><tspan x="165" dy="0">Viewing Member</tspan></text>
      <rect x="40" y="82" width="250" height="1466" fill="#F5F5F5" stroke="none"/>
    
      <rect x="324" y="10" width="250" height="62" fill="#D9C2F5" stroke="none"/>
      <text text-anchor="middle" font-family="Arial" font-size="18" font-weight="700" fill="#222" x="449" y="33"><tspan x="449" dy="0">Portal Directory</tspan></text>
      <rect x="324" y="82" width="250" height="1466" fill="#F5F5F5" stroke="none"/>
    
      <rect x="608" y="10" width="250" height="62" fill="#B9E1FA" stroke="none"/>
      <text text-anchor="middle" font-family="Arial" font-size="18" font-weight="700" fill="#222" x="733" y="33"><tspan x="733" dy="0">Directory System</tspan></text>
      <rect x="608" y="82" width="250" height="1466" fill="#F5F5F5" stroke="none"/>
    
      <rect x="892" y="10" width="250" height="62" fill="#FFC0BE" stroke="none"/>
      <text text-anchor="middle" font-family="Arial" font-size="18" font-weight="700" fill="#222" x="1017" y="33"><tspan x="1017" dy="0">Project / Legal</tspan><tspan x="1017" dy="20">Review</tspan></text>
      <rect x="892" y="82" width="250" height="1466" fill="#F5F5F5" stroke="none"/>
    
    <path d="M 165 210 L 165 232" fill="none" stroke="#9AA3AF" stroke-width="1.5" marker-end="url(#arrow)"/><path d="M 165 328 L 165 339 L 733 339 L 733 350" fill="none" stroke="#9AA3AF" stroke-width="1.5" marker-end="url(#arrow)"/><path d="M 733 446 L 733 457 L 449 457 L 449 468" fill="none" stroke="#9AA3AF" stroke-width="1.5" marker-end="url(#arrow)"/><rect x="563" y="429" width="56" height="18" fill="#ffffff" opacity="0.86"/>
        <text x="591" y="442" text-anchor="middle" font-family="Arial" font-size="13" font-weight="700" fill="#333">No</text><path d="M 733 446 L 733 516 L 165 516 L 165 586" fill="none" stroke="#9AA3AF" stroke-width="1.5" marker-end="url(#arrow)"/><rect x="421" y="506" width="56" height="18" fill="#ffffff" opacity="0.86"/>
        <text x="449" y="519" text-anchor="middle" font-family="Arial" font-size="13" font-weight="700" fill="#333">Yes</text><path d="M 165 682 L 165 693 L 733 693 L 733 704" fill="none" stroke="#9AA3AF" stroke-width="1.5" marker-end="url(#arrow)"/><path d="M 733 800 L 733 811 L 449 811 L 449 822" fill="none" stroke="#9AA3AF" stroke-width="1.5" marker-end="url(#arrow)"/><rect x="563" y="783" width="56" height="18" fill="#ffffff" opacity="0.86"/>
        <text x="591" y="796" text-anchor="middle" font-family="Arial" font-size="13" font-weight="700" fill="#333">No</text><path d="M 733 800 L 733 940" fill="none" stroke="#9AA3AF" stroke-width="1.5" marker-end="url(#arrow)"/><rect x="705" y="860" width="56" height="18" fill="#ffffff" opacity="0.86"/>
        <text x="733" y="873" text-anchor="middle" font-family="Arial" font-size="13" font-weight="700" fill="#333">Yes</text><path d="M 733 1036 L 733 1047 L 165 1047 L 165 1058" fill="none" stroke="#9AA3AF" stroke-width="1.5" marker-end="url(#arrow)"/><path d="M 165 1154 L 165 1165 L 733 1165 L 733 1176" fill="none" stroke="#9AA3AF" stroke-width="1.5" marker-end="url(#arrow)"/><path d="M 733 1272 L 733 1283 L 1017 1283 L 1017 1294" fill="none" stroke="#9AA3AF" stroke-width="1.5" marker-end="url(#arrow)"/><path d="M 1017 1390 L 1017 1401 L 733 1401 L 733 1412" fill="none" stroke="#9AA3AF" stroke-width="1.5" marker-end="url(#arrow)"/>
    <ellipse cx="165" cy="162" rx="93" ry="46" fill="#B9E1FA" stroke="#6BAED6" stroke-width="1.5"/>
      <text text-anchor="middle" font-size="15" fill="#172033" font-family="Arial" x="165" y="167"><tspan x="165" dy="0">Start</tspan></text><rect x="72" y="234" width="186" height="92" fill="#FFE8A6" stroke="#D6AE3E" stroke-width="1.5"/>
    <text text-anchor="middle" font-size="14" fill="#172033" font-family="Arial" x="165" y="276.5"><tspan x="165" dy="0">Open portal</tspan><tspan x="165" dy="17">Directory</tspan></text><polygon points="733,352 826,400 733,448 640,400" fill="#B9E1FA" stroke="#6BAED6" stroke-width="1.5"/>
      <text text-anchor="middle" font-size="14" fill="#172033" font-family="Arial" x="733" y="396.5"><tspan x="733" dy="0">Viewer has directory</tspan><tspan x="733" dy="17">access?</tspan></text><rect x="356" y="470" width="186" height="92" fill="#D9C2F5" stroke="#9C6FD2" stroke-width="1.5"/>
    <text text-anchor="middle" font-size="14" fill="#172033" font-family="Arial" x="449" y="512.5"><tspan x="449" dy="0">Status: access</tspan><tspan x="449" dy="17">blocked</tspan></text><rect x="72" y="588" width="186" height="92" fill="#FFE8A6" stroke="#D6AE3E" stroke-width="1.5"/>
    <text text-anchor="middle" font-size="14" fill="#172033" font-family="Arial" x="165" y="630.5"><tspan x="165" dy="0">Search member</tspan><tspan x="165" dy="17">records</tspan></text><polygon points="733,706 826,754 733,802 640,754" fill="#B9E1FA" stroke="#6BAED6" stroke-width="1.5"/>
      <text text-anchor="middle" font-size="14" fill="#172033" font-family="Arial" x="733" y="750.5"><tspan x="733" dy="0">Target member</tspan><tspan x="733" dy="17">visible?</tspan></text><rect x="356" y="824" width="186" height="92" fill="#D9C2F5" stroke="#9C6FD2" stroke-width="1.5"/>
    <text text-anchor="middle" font-size="14" fill="#172033" font-family="Arial" x="449" y="866.5"><tspan x="449" dy="0">Status: hidden by</tspan><tspan x="449" dy="17">exception</tspan></text><rect x="640" y="942" width="186" height="92" fill="#B9E1FA" stroke="#6BAED6" stroke-width="1.5"/>
    <text text-anchor="middle" font-size="14" fill="#172033" font-family="Arial" x="733" y="984.5"><tspan x="733" dy="0">Status: visible in</tspan><tspan x="733" dy="17">results</tspan></text><rect x="72" y="1060" width="186" height="92" fill="#FFE8A6" stroke="#D6AE3E" stroke-width="1.5"/>
    <text text-anchor="middle" font-size="14" fill="#172033" font-family="Arial" x="165" y="1111"><tspan x="165" dy="0">Open member profile</tspan></text><rect x="640" y="1178" width="186" height="92" fill="#B9E1FA" stroke="#6BAED6" stroke-width="1.5"/>
    <text text-anchor="middle" font-size="14" fill="#172033" font-family="Arial" x="733" y="1220.5"><tspan x="733" dy="0">Status: all fields</tspan><tspan x="733" dy="17">visible</tspan></text><rect x="924" y="1296" width="186" height="92" fill="#FFC0BE" stroke="#DE7D79" stroke-width="1.5"/>
    <text text-anchor="middle" font-size="14" fill="#172033" font-family="Arial" x="1017" y="1338.5"><tspan x="1017" dy="0">Privacy / consent</tspan><tspan x="1017" dy="17">review required</tspan></text><rect x="640" y="1414" width="186" height="92" fill="#B9E1FA" stroke="#6BAED6" stroke-width="1.5"/>
    <text text-anchor="middle" font-size="14" fill="#172033" font-family="Arial" x="733" y="1456.5"><tspan x="733" dy="0">Log profile view if</tspan><tspan x="733" dy="17">required</tspan></text>
    <text x="40" y="1564" font-family="Arial" font-size="13" fill="#6B7280">11-member-directory-visibility.mmd</text>
  </svg>